<svg xmlns="http://www.w3.org/2000/svg" width="250" height="80" viewBox="0 0 285 70" fill="none">
  <g transform="translate(2,5) scale(0.05)"><ns0:path xmlns:ns0="http://www.w3.org/2000/svg" d="M 797,1043 Z" fill="#ff8731"/>
  <ns1:path xmlns:ns1="http://www.w3.org/2000/svg" d="M 421,867 Z" fill="#ff8731"/>
  <ns2:path xmlns:ns2="http://www.w3.org/2000/svg" d="M 595,764 L 594,765 Z" fill="#ff8731"/>
  <ns3:path xmlns:ns3="http://www.w3.org/2000/svg" d="M 346,713 Z" fill="#ff8731"/>
  <ns4:path xmlns:ns4="http://www.w3.org/2000/svg" d="M 330,670 Z" fill="#ff8731"/>
  <ns5:path xmlns:ns5="http://www.w3.org/2000/svg" d="M 1010,645 L 1008,647 L 1003,647 L 1002,648 L 999,648 L 998,649 L 997,648 L 994,648 L 994,649 L 993,650 L 992,650 L 992,651 L 990,653 L 989,653 L 988,652 L 987,652 L 986,653 L 982,653 L 983,654 L 982,655 L 980,655 L 979,656 L 975,656 L 975,657 L 974,658 L 973,658 L 972,657 L 971,658 L 967,658 L 967,659 L 966,660 L 965,660 L 964,661 L 960,661 L 961,661 L 962,662 L 961,663 L 953,663 L 952,664 L 952,666 L 951,667 L 951,669 L 950,670 L 949,670 L 949,671 L 950,670 L 951,671 L 951,672 L 950,673 L 949,673 L 949,674 L 948,675 L 947,675 L 947,676 L 946,677 L 946,683 L 945,684 L 945,685 L 944,686 L 944,687 L 943,688 L 942,688 L 942,690 L 941,691 L 940,691 L 941,692 L 941,694 L 940,695 L 940,696 L 938,698 L 938,701 L 937,702 L 937,703 L 936,704 L 935,704 L 936,705 L 936,707 L 933,710 L 932,710 L 931,711 L 932,712 L 931,713 L 931,715 L 930,716 L 930,717 L 931,718 L 931,719 L 929,721 L 929,722 L 928,723 L 927,723 L 927,725 L 925,727 L 926,728 L 926,729 L 925,730 L 925,731 L 924,732 L 924,733 L 923,734 L 923,735 L 922,736 L 922,738 L 920,740 L 920,744 L 918,746 L 916,746 L 916,749 L 915,750 L 915,756 L 912,759 L 912,761 L 910,763 L 910,767 L 907,770 L 908,771 L 906,773 L 906,774 L 905,775 L 905,779 L 902,782 L 901,782 L 900,783 L 901,784 L 900,785 L 900,787 L 899,788 L 900,789 L 900,791 L 899,792 L 899,793 L 897,795 L 896,795 L 895,796 L 896,797 L 895,798 L 894,798 L 894,799 L 895,800 L 895,801 L 894,802 L 894,804 L 892,806 L 892,808 L 891,809 L 891,810 L 890,811 L 889,811 L 889,812 L 890,813 L 890,814 L 887,817 L 886,817 L 886,818 L 885,819 L 885,822 L 884,823 L 884,825 L 885,826 L 884,827 L 884,828 L 881,831 L 881,832 L 879,834 L 879,835 L 880,836 L 880,837 L 878,839 L 878,840 L 877,841 L 877,843 L 876,844 L 876,845 L 874,847 L 874,851 L 869,856 L 868,856 L 867,857 L 866,857 L 865,858 L 866,859 L 865,860 L 864,860 L 863,861 L 864,862 L 863,863 L 862,863 L 862,864 L 861,865 L 858,865 L 857,866 L 856,865 L 856,866 L 855,867 L 854,867 L 854,868 L 853,869 L 853,870 L 852,871 L 851,871 L 850,872 L 849,872 L 848,873 L 846,873 L 846,874 L 843,877 L 842,877 L 841,878 L 838,878 L 838,879 L 835,882 L 834,882 L 833,883 L 830,883 L 830,885 L 827,888 L 826,887 L 825,888 L 822,888 L 821,889 L 822,890 L 821,891 L 820,891 L 818,893 L 815,893 L 814,894 L 814,896 L 812,898 L 807,898 L 806,899 L 806,900 L 805,901 L 805,902 L 804,903 L 800,903 L 797,906 L 798,907 L 798,908 L 796,910 L 795,909 L 795,908 L 795,909 L 793,911 L 788,911 L 785,914 L 784,914 L 784,915 L 783,916 L 782,916 L 782,918 L 781,919 L 780,918 L 780,920 L 779,921 L 777,921 L 776,920 L 774,922 L 774,923 L 773,924 L 772,924 L 771,923 L 770,924 L 769,924 L 767,926 L 766,926 L 767,927 L 767,928 L 766,929 L 765,929 L 764,928 L 764,929 L 765,930 L 764,931 L 763,931 L 762,932 L 761,931 L 760,932 L 758,932 L 759,933 L 758,934 L 756,934 L 757,935 L 755,937 L 754,937 L 751,940 L 749,940 L 749,941 L 748,942 L 743,942 L 741,944 L 740,944 L 741,945 L 741,946 L 740,947 L 739,947 L 736,950 L 733,950 L 733,951 L 730,954 L 729,954 L 728,955 L 727,955 L 726,954 L 725,954 L 725,955 L 726,956 L 724,958 L 723,958 L 723,959 L 722,960 L 721,959 L 720,960 L 719,960 L 718,959 L 717,960 L 718,961 L 715,964 L 714,964 L 713,965 L 712,965 L 711,964 L 710,964 L 710,965 L 709,966 L 709,967 L 707,969 L 706,969 L 705,970 L 702,970 L 702,972 L 699,975 L 695,975 L 695,976 L 693,978 L 692,978 L 692,979 L 691,980 L 687,980 L 687,981 L 688,982 L 687,983 L 684,983 L 683,984 L 683,985 L 682,986 L 681,985 L 680,985 L 677,988 L 677,989 L 676,990 L 675,989 L 673,991 L 671,991 L 671,992 L 670,993 L 669,993 L 670,994 L 670,995 L 669,996 L 668,996 L 667,995 L 667,997 L 666,998 L 664,998 L 663,999 L 661,999 L 662,1000 L 661,1001 L 660,1001 L 658,1003 L 657,1003 L 657,1005 L 656,1006 L 656,1007 L 655,1008 L 655,1009 L 654,1010 L 654,1014 L 653,1015 L 654,1016 L 654,1018 L 653,1019 L 653,1086 L 654,1087 L 654,1099 L 656,1101 L 658,1101 L 659,1102 L 660,1101 L 662,1101 L 663,1100 L 665,1100 L 666,1099 L 667,1099 L 668,1098 L 669,1098 L 671,1096 L 672,1096 L 673,1095 L 674,1096 L 677,1093 L 679,1093 L 681,1091 L 684,1091 L 685,1090 L 687,1090 L 688,1089 L 689,1089 L 689,1088 L 690,1087 L 693,1087 L 694,1086 L 695,1086 L 696,1085 L 697,1086 L 698,1085 L 701,1085 L 702,1084 L 702,1083 L 704,1081 L 705,1082 L 706,1081 L 708,1081 L 709,1080 L 711,1080 L 711,1079 L 712,1078 L 713,1078 L 714,1077 L 715,1077 L 716,1078 L 715,1079 L 716,1078 L 716,1077 L 717,1076 L 718,1076 L 719,1075 L 720,1076 L 721,1075 L 721,1074 L 722,1073 L 723,1073 L 724,1072 L 725,1073 L 725,1072 L 726,1071 L 731,1071 L 732,1070 L 734,1070 L 734,1069 L 736,1067 L 740,1067 L 741,1066 L 743,1066 L 743,1065 L 744,1064 L 746,1064 L 747,1065 L 748,1064 L 748,1063 L 750,1061 L 753,1061 L 753,1060 L 754,1059 L 756,1059 L 757,1060 L 757,1059 L 759,1057 L 761,1057 L 762,1056 L 764,1056 L 765,1055 L 766,1055 L 767,1054 L 770,1054 L 773,1051 L 775,1051 L 776,1050 L 779,1050 L 780,1049 L 783,1049 L 784,1048 L 784,1047 L 786,1045 L 787,1046 L 788,1045 L 789,1045 L 790,1044 L 793,1044 L 794,1043 L 794,1042 L 795,1041 L 799,1041 L 801,1039 L 802,1039 L 803,1038 L 804,1038 L 806,1036 L 807,1037 L 809,1035 L 813,1035 L 814,1034 L 816,1034 L 817,1033 L 817,1032 L 819,1030 L 823,1030 L 824,1029 L 825,1030 L 826,1030 L 827,1029 L 829,1029 L 830,1028 L 830,1027 L 832,1025 L 836,1025 L 837,1024 L 839,1024 L 839,1023 L 840,1022 L 841,1022 L 842,1021 L 844,1021 L 845,1020 L 846,1020 L 847,1019 L 848,1019 L 849,1020 L 848,1019 L 849,1018 L 853,1018 L 853,1017 L 855,1015 L 857,1015 L 859,1013 L 862,1013 L 863,1012 L 864,1012 L 865,1011 L 866,1011 L 867,1010 L 869,1010 L 870,1009 L 871,1009 L 872,1008 L 875,1008 L 878,1005 L 880,1005 L 881,1004 L 882,1004 L 883,1003 L 884,1003 L 885,1002 L 886,1002 L 888,1000 L 891,1000 L 892,999 L 894,999 L 895,998 L 898,998 L 899,997 L 899,996 L 900,995 L 901,995 L 902,994 L 905,994 L 906,993 L 908,993 L 908,992 L 909,991 L 910,991 L 911,990 L 913,990 L 914,989 L 918,989 L 919,988 L 921,988 L 921,987 L 922,986 L 923,986 L 924,985 L 926,985 L 927,984 L 928,984 L 929,983 L 930,983 L 932,981 L 933,981 L 934,980 L 935,980 L 936,979 L 940,979 L 940,978 L 941,977 L 943,977 L 944,978 L 944,977 L 947,974 L 950,974 L 952,972 L 956,972 L 957,973 L 957,972 L 959,970 L 959,969 L 960,968 L 961,969 L 962,969 L 964,967 L 965,968 L 967,966 L 968,966 L 969,965 L 971,965 L 973,963 L 976,963 L 977,962 L 979,962 L 980,961 L 981,961 L 981,960 L 982,959 L 984,959 L 985,958 L 986,958 L 987,957 L 989,957 L 992,954 L 995,954 L 996,953 L 999,953 L 1000,952 L 1003,952 L 1006,949 L 1008,949 L 1009,948 L 1010,948 L 1011,947 L 1012,947 L 1013,946 L 1014,946 L 1015,945 L 1015,944 L 1016,943 L 1016,942 L 1017,941 L 1017,882 L 1016,881 L 1016,880 L 1017,879 L 1016,878 L 1017,877 L 1017,868 L 1016,867 L 1016,866 L 1017,865 L 1017,859 L 1016,858 L 1016,857 L 1017,856 L 1017,838 L 1016,837 L 1017,836 L 1017,807 L 1016,806 L 1017,805 L 1017,797 L 1016,796 L 1017,795 L 1017,763 L 1016,762 L 1016,728 L 1017,727 L 1016,726 L 1016,708 L 1017,707 L 1016,706 L 1016,704 L 1017,703 L 1016,702 L 1016,698 L 1017,697 L 1016,696 L 1017,695 L 1017,670 L 1016,669 L 1016,666 L 1017,665 L 1017,663 L 1016,663 L 1015,662 L 1016,661 L 1016,660 L 1015,659 L 1015,648 L 1014,648 L 1012,646 L 1011,647 L 1010,646 Z" fill="#ff8731"/>
  <ns6:path xmlns:ns6="http://www.w3.org/2000/svg" d="M 261,642 L 260,643 L 260,644 L 259,645 L 259,646 L 260,647 L 260,648 L 259,649 L 260,650 L 260,653 L 259,654 L 260,655 L 260,658 L 259,659 L 259,660 L 257,662 L 257,666 L 258,667 L 258,668 L 259,669 L 259,671 L 260,672 L 260,945 L 261,946 L 260,947 L 260,948 L 262,948 L 263,949 L 265,949 L 266,948 L 270,952 L 271,952 L 272,953 L 273,953 L 274,954 L 277,954 L 279,956 L 280,956 L 281,957 L 282,957 L 283,958 L 286,958 L 287,959 L 290,959 L 291,960 L 291,961 L 294,961 L 295,962 L 296,962 L 297,963 L 298,963 L 299,964 L 300,964 L 301,965 L 302,965 L 303,966 L 304,966 L 305,967 L 306,967 L 307,968 L 309,968 L 310,969 L 312,969 L 313,970 L 315,970 L 316,971 L 317,971 L 318,972 L 319,972 L 320,973 L 322,973 L 323,974 L 325,974 L 326,975 L 327,975 L 331,979 L 332,978 L 333,979 L 335,979 L 336,980 L 338,980 L 339,981 L 340,981 L 341,982 L 342,982 L 344,984 L 348,984 L 351,987 L 352,987 L 354,989 L 355,989 L 356,990 L 357,989 L 358,989 L 360,991 L 363,991 L 364,992 L 365,992 L 367,994 L 369,994 L 370,995 L 372,995 L 374,997 L 375,997 L 376,998 L 376,999 L 378,999 L 379,1000 L 382,1000 L 383,1001 L 384,1001 L 385,1002 L 387,1002 L 389,1004 L 391,1004 L 392,1005 L 395,1005 L 397,1007 L 398,1007 L 399,1008 L 399,1009 L 401,1009 L 402,1010 L 404,1010 L 405,1011 L 407,1011 L 408,1012 L 409,1012 L 410,1013 L 411,1013 L 412,1014 L 414,1014 L 415,1015 L 417,1015 L 418,1016 L 419,1016 L 420,1017 L 421,1017 L 422,1018 L 422,1019 L 424,1019 L 425,1020 L 427,1020 L 428,1021 L 430,1021 L 431,1022 L 432,1022 L 434,1024 L 435,1024 L 436,1025 L 437,1024 L 438,1025 L 440,1025 L 442,1027 L 443,1027 L 445,1029 L 447,1029 L 448,1030 L 452,1030 L 453,1031 L 454,1031 L 458,1035 L 459,1035 L 460,1034 L 461,1035 L 463,1035 L 465,1037 L 467,1037 L 469,1039 L 471,1039 L 472,1040 L 473,1040 L 474,1041 L 475,1041 L 477,1043 L 479,1043 L 480,1044 L 481,1044 L 482,1045 L 483,1045 L 484,1046 L 487,1046 L 488,1047 L 489,1047 L 490,1048 L 491,1048 L 492,1049 L 493,1049 L 494,1050 L 496,1050 L 497,1051 L 499,1051 L 501,1053 L 502,1053 L 504,1055 L 506,1055 L 507,1056 L 510,1056 L 511,1057 L 511,1058 L 512,1057 L 513,1058 L 514,1058 L 516,1060 L 519,1060 L 520,1061 L 522,1061 L 525,1064 L 526,1064 L 527,1065 L 529,1065 L 530,1066 L 535,1066 L 540,1071 L 541,1071 L 542,1070 L 543,1071 L 545,1071 L 547,1073 L 549,1073 L 551,1075 L 553,1075 L 554,1076 L 555,1076 L 557,1078 L 558,1078 L 559,1079 L 561,1079 L 562,1080 L 563,1080 L 564,1081 L 565,1081 L 566,1082 L 569,1082 L 571,1084 L 572,1084 L 574,1086 L 576,1086 L 577,1087 L 582,1087 L 583,1088 L 583,1089 L 584,1089 L 586,1091 L 589,1091 L 590,1092 L 593,1092 L 595,1094 L 596,1094 L 597,1095 L 598,1095 L 599,1096 L 601,1096 L 603,1098 L 604,1098 L 605,1099 L 606,1099 L 607,1100 L 609,1100 L 610,1101 L 611,1100 L 613,1102 L 616,1102 L 617,1101 L 618,1101 L 619,1102 L 619,1101 L 620,1100 L 620,1087 L 621,1086 L 621,1084 L 620,1083 L 620,1082 L 621,1081 L 621,1065 L 620,1064 L 620,1057 L 621,1056 L 621,1055 L 620,1054 L 620,1052 L 621,1051 L 621,1050 L 620,1049 L 620,1047 L 621,1046 L 621,1044 L 620,1043 L 620,1042 L 621,1041 L 621,1039 L 620,1038 L 621,1037 L 620,1036 L 621,1035 L 621,1003 L 619,1003 L 618,1002 L 618,1001 L 617,1001 L 616,1000 L 616,999 L 613,996 L 612,996 L 610,994 L 609,994 L 608,993 L 606,993 L 605,992 L 604,992 L 599,987 L 599,986 L 597,986 L 595,984 L 593,984 L 592,983 L 591,984 L 590,983 L 590,982 L 589,982 L 587,980 L 588,979 L 587,980 L 585,978 L 584,978 L 583,977 L 584,976 L 583,976 L 582,975 L 580,975 L 579,974 L 578,974 L 576,972 L 576,971 L 575,971 L 574,970 L 573,971 L 572,970 L 572,969 L 571,968 L 569,968 L 568,967 L 568,966 L 567,965 L 566,965 L 565,964 L 564,965 L 562,963 L 561,963 L 560,962 L 560,961 L 559,960 L 558,960 L 557,961 L 555,959 L 556,958 L 553,958 L 552,957 L 552,955 L 551,955 L 550,956 L 549,955 L 549,954 L 548,954 L 543,949 L 543,948 L 542,948 L 541,947 L 539,947 L 538,946 L 537,946 L 536,945 L 535,946 L 534,945 L 534,944 L 533,944 L 531,942 L 531,941 L 531,942 L 530,943 L 529,942 L 529,940 L 528,940 L 527,939 L 527,938 L 526,937 L 524,937 L 523,936 L 523,935 L 522,935 L 521,936 L 519,936 L 518,935 L 519,934 L 518,933 L 518,932 L 517,931 L 517,930 L 516,929 L 514,929 L 512,927 L 509,927 L 508,926 L 508,925 L 506,925 L 505,924 L 506,923 L 505,924 L 504,923 L 504,922 L 503,922 L 502,921 L 502,920 L 501,919 L 499,919 L 497,917 L 495,917 L 494,916 L 494,915 L 493,914 L 490,914 L 489,913 L 490,912 L 486,912 L 485,911 L 486,910 L 485,909 L 484,909 L 483,910 L 482,909 L 482,907 L 479,907 L 478,906 L 478,904 L 476,904 L 474,902 L 473,902 L 470,899 L 469,899 L 468,900 L 467,899 L 467,897 L 465,897 L 463,895 L 463,894 L 462,894 L 461,893 L 461,894 L 460,895 L 458,893 L 459,892 L 458,892 L 455,889 L 453,889 L 452,890 L 451,889 L 451,887 L 450,887 L 447,884 L 446,884 L 445,885 L 444,885 L 443,884 L 444,883 L 444,882 L 443,881 L 441,881 L 440,880 L 440,879 L 438,879 L 437,880 L 436,879 L 436,878 L 434,876 L 433,876 L 432,875 L 433,874 L 432,874 L 431,873 L 430,874 L 429,874 L 428,873 L 428,871 L 425,871 L 424,870 L 425,869 L 424,868 L 423,868 L 422,869 L 420,869 L 419,868 L 419,866 L 418,866 L 417,865 L 417,864 L 416,863 L 415,864 L 414,863 L 414,861 L 413,860 L 412,860 L 412,861 L 411,862 L 409,860 L 409,859 L 408,858 L 407,858 L 406,857 L 406,855 L 405,855 L 404,854 L 404,851 L 400,847 L 400,844 L 399,843 L 399,842 L 398,841 L 398,839 L 397,839 L 396,838 L 396,835 L 395,834 L 396,833 L 395,832 L 395,831 L 393,829 L 393,827 L 392,827 L 391,826 L 391,825 L 392,824 L 390,822 L 390,818 L 388,816 L 388,814 L 387,814 L 386,813 L 386,810 L 385,809 L 385,806 L 383,804 L 383,801 L 382,801 L 381,800 L 381,798 L 380,797 L 380,796 L 379,796 L 378,795 L 378,791 L 377,791 L 376,790 L 376,787 L 375,786 L 375,783 L 373,781 L 373,779 L 371,777 L 371,775 L 370,774 L 370,770 L 369,770 L 368,769 L 368,768 L 367,767 L 367,765 L 366,764 L 366,763 L 365,762 L 365,760 L 364,760 L 363,759 L 363,758 L 362,757 L 363,756 L 360,753 L 361,752 L 360,751 L 360,748 L 358,746 L 358,745 L 357,744 L 357,742 L 356,742 L 355,741 L 356,740 L 355,739 L 355,738 L 354,737 L 355,736 L 355,735 L 352,732 L 352,730 L 350,728 L 350,725 L 349,724 L 350,723 L 350,722 L 349,721 L 349,720 L 348,720 L 347,719 L 348,718 L 347,717 L 347,715 L 346,716 L 344,714 L 344,711 L 342,709 L 342,707 L 340,705 L 340,703 L 339,702 L 339,701 L 340,700 L 339,699 L 339,698 L 338,698 L 337,697 L 337,694 L 335,692 L 335,690 L 336,689 L 335,690 L 334,689 L 334,688 L 335,687 L 334,686 L 334,685 L 333,685 L 332,684 L 332,682 L 331,681 L 330,681 L 329,680 L 329,677 L 328,676 L 329,675 L 329,673 L 327,671 L 328,670 L 324,666 L 324,664 L 322,662 L 322,661 L 321,660 L 320,660 L 319,659 L 318,660 L 316,658 L 308,658 L 304,654 L 302,654 L 301,653 L 299,653 L 298,654 L 297,653 L 293,653 L 291,651 L 290,651 L 289,650 L 289,648 L 285,648 L 284,647 L 284,648 L 283,649 L 282,649 L 281,648 L 279,648 L 278,647 L 278,646 L 277,646 L 276,647 L 273,644 L 273,643 L 271,643 L 270,644 L 269,643 L 266,643 L 265,644 L 264,644 L 262,642 Z" fill="#ff8731"/>
  <ns7:path xmlns:ns7="http://www.w3.org/2000/svg" d="M 749,486 L 745,490 L 744,489 L 742,489 L 741,488 L 738,488 L 738,490 L 736,492 L 735,492 L 734,493 L 733,493 L 732,492 L 732,491 L 732,492 L 733,493 L 732,494 L 730,494 L 729,493 L 727,495 L 726,494 L 724,494 L 723,493 L 721,493 L 720,494 L 719,494 L 719,495 L 720,496 L 719,497 L 714,497 L 715,497 L 716,498 L 715,499 L 713,499 L 712,500 L 711,499 L 709,499 L 708,498 L 708,497 L 706,497 L 705,498 L 704,498 L 704,501 L 702,503 L 701,503 L 700,502 L 699,502 L 697,500 L 696,501 L 695,501 L 697,503 L 696,504 L 695,504 L 694,505 L 693,505 L 692,504 L 691,504 L 690,503 L 690,502 L 689,503 L 687,503 L 687,505 L 684,508 L 682,508 L 680,510 L 675,510 L 673,512 L 672,512 L 672,513 L 669,516 L 669,517 L 670,518 L 670,527 L 669,528 L 670,529 L 670,531 L 671,532 L 670,533 L 670,535 L 671,534 L 672,535 L 672,538 L 673,539 L 672,540 L 673,541 L 673,542 L 674,543 L 674,546 L 675,547 L 675,552 L 674,553 L 674,556 L 675,557 L 674,558 L 674,559 L 675,559 L 676,560 L 675,561 L 675,562 L 676,562 L 677,563 L 677,566 L 678,567 L 678,572 L 679,573 L 679,575 L 680,576 L 679,577 L 680,578 L 680,581 L 679,582 L 679,583 L 680,584 L 680,585 L 679,586 L 679,588 L 680,589 L 680,591 L 681,591 L 682,592 L 682,594 L 683,595 L 683,600 L 684,601 L 683,602 L 685,604 L 684,605 L 685,606 L 685,615 L 684,616 L 686,618 L 684,620 L 684,622 L 685,623 L 685,624 L 686,624 L 688,626 L 687,627 L 687,629 L 688,630 L 688,632 L 689,633 L 689,635 L 690,636 L 690,640 L 688,642 L 689,641 L 690,642 L 690,643 L 689,644 L 689,645 L 687,647 L 686,646 L 685,647 L 684,647 L 683,648 L 684,648 L 685,649 L 684,650 L 682,650 L 681,649 L 681,648 L 680,649 L 676,649 L 675,648 L 673,648 L 672,649 L 658,649 L 657,648 L 643,648 L 642,649 L 629,649 L 628,648 L 626,648 L 625,649 L 623,649 L 622,648 L 621,648 L 620,649 L 619,649 L 618,648 L 617,648 L 616,649 L 615,648 L 612,648 L 611,649 L 588,649 L 585,646 L 586,645 L 586,643 L 587,642 L 587,640 L 588,639 L 587,638 L 587,636 L 589,634 L 589,630 L 590,629 L 590,617 L 592,615 L 592,613 L 593,612 L 593,608 L 592,607 L 593,606 L 594,606 L 594,605 L 595,604 L 595,589 L 596,588 L 597,588 L 597,586 L 598,585 L 597,584 L 597,583 L 600,580 L 600,568 L 601,567 L 600,566 L 601,565 L 601,564 L 600,563 L 600,562 L 601,561 L 600,560 L 601,559 L 602,559 L 602,558 L 603,557 L 603,551 L 604,550 L 604,548 L 605,547 L 605,540 L 606,539 L 606,536 L 605,535 L 607,533 L 607,532 L 608,531 L 607,530 L 608,529 L 608,526 L 609,525 L 609,524 L 610,523 L 610,521 L 609,520 L 609,519 L 610,518 L 610,514 L 609,513 L 608,514 L 607,513 L 607,512 L 606,513 L 603,510 L 604,511 L 603,512 L 602,512 L 601,511 L 600,511 L 599,510 L 599,509 L 598,510 L 597,510 L 596,509 L 596,508 L 595,507 L 595,506 L 593,506 L 591,508 L 590,508 L 588,506 L 588,505 L 587,505 L 586,504 L 583,504 L 582,505 L 580,505 L 578,503 L 577,503 L 576,504 L 575,503 L 575,500 L 573,500 L 572,499 L 568,499 L 567,500 L 566,499 L 565,500 L 564,500 L 563,499 L 563,497 L 562,496 L 561,497 L 560,496 L 560,495 L 559,495 L 558,494 L 556,494 L 555,493 L 554,493 L 553,494 L 544,494 L 543,493 L 542,493 L 541,492 L 542,493 L 541,494 L 540,494 L 538,492 L 537,492 L 536,491 L 537,490 L 536,489 L 535,489 L 534,490 L 533,489 L 532,489 L 531,490 L 528,490 L 527,489 L 527,487 L 526,487 L 525,488 L 513,488 L 512,487 L 493,487 L 492,488 L 491,488 L 490,487 L 489,487 L 488,488 L 486,488 L 485,487 L 466,487 L 465,488 L 464,488 L 463,487 L 462,488 L 461,487 L 458,487 L 457,488 L 456,488 L 455,489 L 454,489 L 453,490 L 452,490 L 451,491 L 450,491 L 446,495 L 446,496 L 444,498 L 444,506 L 445,506 L 446,507 L 445,508 L 453,516 L 455,516 L 457,518 L 464,518 L 465,519 L 465,520 L 468,520 L 469,521 L 471,521 L 472,522 L 473,521 L 474,522 L 476,522 L 477,523 L 478,523 L 479,524 L 481,524 L 482,523 L 483,524 L 483,525 L 484,525 L 485,524 L 486,525 L 486,526 L 488,526 L 489,527 L 492,527 L 493,528 L 495,528 L 496,529 L 497,529 L 498,530 L 499,530 L 500,529 L 502,531 L 503,531 L 505,533 L 506,532 L 507,533 L 511,533 L 512,534 L 513,534 L 514,535 L 517,535 L 518,536 L 521,536 L 522,537 L 522,538 L 523,537 L 524,537 L 525,538 L 526,538 L 527,539 L 528,539 L 529,540 L 531,540 L 532,541 L 533,541 L 535,543 L 536,542 L 537,542 L 538,543 L 539,543 L 540,544 L 545,544 L 547,546 L 548,546 L 550,548 L 552,548 L 553,549 L 558,549 L 560,551 L 561,551 L 562,552 L 562,556 L 562,555 L 563,554 L 564,555 L 564,558 L 565,559 L 565,560 L 564,561 L 564,573 L 563,574 L 563,575 L 564,576 L 563,577 L 563,579 L 562,580 L 562,582 L 563,583 L 562,584 L 562,585 L 563,586 L 562,587 L 562,592 L 560,594 L 560,596 L 559,597 L 559,598 L 558,599 L 558,600 L 557,601 L 556,601 L 557,602 L 556,603 L 556,604 L 554,606 L 554,608 L 553,609 L 553,610 L 551,612 L 552,613 L 552,614 L 551,615 L 551,616 L 549,618 L 548,618 L 548,620 L 547,621 L 546,621 L 547,622 L 547,625 L 545,627 L 545,628 L 544,629 L 544,631 L 542,633 L 542,634 L 541,635 L 542,636 L 542,637 L 541,638 L 541,639 L 539,641 L 538,641 L 538,642 L 536,644 L 536,649 L 535,650 L 535,651 L 534,652 L 534,655 L 533,656 L 534,655 L 535,656 L 535,657 L 534,658 L 542,666 L 543,666 L 544,667 L 545,667 L 546,668 L 547,668 L 549,670 L 549,671 L 552,671 L 558,677 L 560,677 L 561,678 L 562,678 L 564,680 L 564,681 L 565,682 L 568,682 L 569,683 L 569,684 L 570,684 L 572,686 L 572,687 L 576,687 L 577,688 L 577,692 L 581,692 L 582,693 L 582,694 L 584,694 L 585,695 L 586,695 L 589,698 L 590,697 L 591,697 L 593,699 L 592,700 L 593,701 L 593,702 L 596,702 L 598,704 L 599,704 L 600,705 L 601,705 L 605,709 L 605,710 L 605,709 L 604,708 L 605,707 L 606,707 L 608,709 L 608,712 L 611,712 L 612,713 L 612,714 L 613,714 L 616,717 L 617,717 L 618,718 L 619,718 L 620,719 L 621,719 L 623,721 L 623,722 L 624,723 L 624,724 L 625,723 L 627,723 L 631,727 L 631,728 L 633,728 L 634,727 L 635,727 L 636,728 L 637,728 L 638,727 L 647,727 L 648,726 L 648,725 L 650,723 L 651,724 L 652,723 L 652,722 L 653,721 L 654,722 L 655,722 L 656,721 L 656,720 L 657,719 L 659,719 L 660,718 L 660,717 L 661,716 L 662,717 L 663,717 L 664,716 L 664,714 L 665,713 L 667,713 L 669,711 L 670,712 L 672,710 L 672,709 L 673,708 L 673,707 L 674,706 L 676,706 L 676,705 L 677,704 L 678,705 L 677,704 L 678,703 L 680,703 L 683,700 L 684,700 L 684,699 L 685,698 L 686,698 L 687,697 L 688,697 L 689,696 L 691,696 L 692,695 L 692,694 L 694,692 L 696,692 L 697,691 L 699,691 L 699,689 L 701,687 L 703,687 L 704,686 L 706,686 L 707,685 L 707,684 L 710,681 L 711,682 L 711,681 L 712,680 L 713,681 L 714,681 L 715,680 L 715,679 L 716,678 L 717,678 L 718,677 L 719,677 L 718,676 L 719,675 L 720,675 L 721,676 L 723,674 L 723,673 L 724,672 L 726,672 L 726,671 L 727,670 L 728,670 L 729,671 L 731,669 L 731,668 L 732,667 L 733,667 L 733,666 L 734,665 L 737,665 L 738,664 L 738,663 L 740,661 L 741,661 L 742,660 L 743,660 L 743,650 L 742,649 L 742,648 L 741,647 L 741,646 L 740,646 L 739,645 L 739,643 L 738,642 L 739,641 L 737,639 L 737,638 L 736,637 L 736,635 L 735,635 L 734,634 L 734,631 L 733,630 L 733,627 L 732,626 L 732,625 L 731,624 L 731,623 L 730,623 L 729,622 L 729,621 L 728,620 L 728,616 L 726,614 L 726,612 L 724,610 L 724,609 L 723,608 L 723,606 L 722,606 L 721,605 L 722,604 L 721,603 L 721,602 L 720,602 L 719,601 L 719,599 L 718,599 L 717,598 L 718,597 L 718,595 L 717,594 L 717,593 L 716,592 L 716,589 L 715,589 L 714,588 L 714,586 L 713,585 L 713,554 L 718,549 L 721,549 L 720,548 L 721,547 L 723,547 L 724,548 L 727,545 L 728,545 L 729,544 L 733,544 L 735,542 L 740,542 L 742,540 L 743,541 L 745,541 L 746,540 L 747,540 L 749,538 L 750,538 L 751,537 L 754,537 L 755,536 L 756,536 L 757,535 L 758,535 L 759,534 L 760,534 L 761,533 L 764,533 L 765,532 L 769,532 L 770,531 L 772,531 L 774,529 L 775,530 L 776,530 L 777,529 L 779,529 L 780,528 L 782,528 L 783,527 L 785,527 L 785,526 L 786,525 L 787,526 L 788,526 L 790,524 L 793,524 L 794,523 L 797,523 L 798,522 L 803,522 L 803,521 L 804,520 L 805,520 L 806,519 L 808,519 L 809,518 L 813,518 L 814,517 L 817,517 L 820,514 L 823,514 L 824,513 L 826,513 L 825,512 L 826,511 L 830,511 L 830,508 L 831,507 L 832,507 L 833,506 L 832,505 L 833,504 L 835,504 L 835,501 L 834,500 L 834,499 L 833,498 L 833,497 L 831,495 L 831,494 L 830,493 L 830,492 L 828,490 L 828,489 L 827,489 L 826,488 L 826,487 L 825,488 L 824,487 L 823,488 L 811,488 L 810,487 L 806,487 L 805,488 L 804,487 L 796,487 L 795,488 L 793,488 L 792,487 L 791,487 L 790,488 L 777,488 L 776,487 L 751,487 L 750,486 Z" fill="#ff8731"/>
  <ns8:path xmlns:ns8="http://www.w3.org/2000/svg" d="M 243,475 Z" fill="#ff8731"/>
  <ns9:path xmlns:ns9="http://www.w3.org/2000/svg" d="M 1028,464 Z" fill="#ff8731"/>
  <ns10:path xmlns:ns10="http://www.w3.org/2000/svg" d="M 252,463 Z" fill="#ff8731"/>
  <ns11:path xmlns:ns11="http://www.w3.org/2000/svg" d="M 1008,453 L 1008,454 L 1007,455 L 1005,455 L 1004,456 L 999,456 L 999,457 L 998,458 L 996,458 L 995,459 L 994,458 L 987,458 L 984,461 L 979,461 L 979,462 L 978,463 L 976,463 L 975,464 L 974,464 L 973,463 L 971,465 L 970,465 L 968,467 L 968,468 L 967,469 L 967,471 L 966,472 L 966,476 L 967,477 L 967,478 L 968,477 L 969,478 L 969,479 L 968,480 L 969,481 L 969,484 L 970,483 L 971,483 L 972,484 L 971,485 L 971,488 L 973,490 L 973,491 L 974,492 L 974,495 L 975,494 L 976,495 L 976,496 L 977,497 L 977,499 L 976,500 L 976,502 L 977,503 L 978,503 L 979,504 L 979,507 L 980,507 L 981,508 L 981,511 L 982,512 L 982,516 L 983,517 L 982,518 L 982,519 L 983,520 L 983,521 L 981,523 L 982,524 L 982,527 L 981,528 L 982,529 L 981,530 L 981,532 L 980,533 L 979,533 L 979,539 L 977,541 L 976,541 L 976,542 L 977,543 L 976,544 L 977,545 L 977,550 L 976,551 L 976,552 L 974,554 L 974,557 L 972,559 L 972,561 L 971,562 L 971,564 L 972,565 L 972,566 L 971,567 L 970,567 L 969,568 L 969,575 L 967,577 L 966,577 L 967,578 L 967,585 L 966,586 L 966,587 L 965,588 L 965,590 L 964,591 L 964,592 L 963,593 L 963,594 L 962,595 L 962,596 L 961,597 L 961,600 L 962,601 L 961,602 L 961,603 L 960,604 L 960,605 L 959,606 L 959,609 L 958,610 L 958,611 L 956,613 L 956,622 L 953,625 L 953,626 L 951,628 L 951,633 L 954,636 L 955,636 L 956,637 L 957,637 L 958,638 L 960,638 L 962,636 L 967,636 L 968,635 L 970,635 L 971,634 L 972,634 L 973,633 L 975,633 L 976,632 L 978,632 L 979,631 L 981,631 L 982,630 L 983,630 L 984,629 L 986,629 L 986,628 L 988,626 L 991,626 L 993,624 L 994,624 L 995,625 L 996,625 L 997,624 L 999,624 L 1000,623 L 1000,621 L 1001,620 L 1002,621 L 1003,621 L 1004,620 L 1005,620 L 1006,619 L 1008,619 L 1009,618 L 1010,618 L 1009,617 L 1010,616 L 1014,616 L 1015,615 L 1018,615 L 1019,614 L 1020,614 L 1021,613 L 1022,613 L 1022,612 L 1024,610 L 1030,610 L 1031,609 L 1033,609 L 1034,608 L 1035,608 L 1035,607 L 1036,606 L 1039,606 L 1040,605 L 1041,605 L 1042,604 L 1043,605 L 1044,604 L 1046,604 L 1047,603 L 1048,603 L 1047,602 L 1049,600 L 1053,600 L 1054,599 L 1059,599 L 1059,598 L 1060,597 L 1061,597 L 1062,596 L 1064,596 L 1065,595 L 1067,595 L 1069,593 L 1071,593 L 1072,594 L 1072,593 L 1075,590 L 1078,590 L 1080,588 L 1081,589 L 1082,588 L 1085,588 L 1087,586 L 1089,586 L 1090,585 L 1092,585 L 1092,584 L 1093,583 L 1094,584 L 1095,583 L 1097,583 L 1101,579 L 1102,579 L 1103,578 L 1106,578 L 1106,577 L 1107,576 L 1107,575 L 1108,574 L 1108,573 L 1109,572 L 1109,569 L 1108,569 L 1107,568 L 1108,567 L 1107,566 L 1107,565 L 1106,565 L 1105,564 L 1106,563 L 1102,559 L 1101,559 L 1100,558 L 1100,557 L 1098,555 L 1098,554 L 1096,552 L 1096,551 L 1094,549 L 1094,548 L 1092,546 L 1091,546 L 1090,545 L 1090,544 L 1087,541 L 1087,540 L 1086,539 L 1086,538 L 1084,536 L 1084,535 L 1082,535 L 1080,533 L 1080,531 L 1079,530 L 1078,530 L 1077,529 L 1077,528 L 1074,525 L 1075,524 L 1074,523 L 1073,523 L 1072,522 L 1072,521 L 1066,515 L 1066,512 L 1064,510 L 1064,509 L 1062,509 L 1061,508 L 1060,508 L 1059,507 L 1059,505 L 1058,505 L 1057,504 L 1057,503 L 1056,502 L 1056,501 L 1054,499 L 1054,498 L 1046,490 L 1046,489 L 1045,488 L 1046,487 L 1045,487 L 1043,485 L 1043,483 L 1041,483 L 1038,480 L 1038,479 L 1037,479 L 1036,478 L 1036,476 L 1035,476 L 1034,475 L 1035,474 L 1033,472 L 1033,471 L 1032,472 L 1031,471 L 1031,470 L 1026,465 L 1026,464 L 1025,463 L 1025,461 L 1025,462 L 1024,463 L 1023,462 L 1023,460 L 1024,459 L 1023,458 L 1022,458 L 1021,459 L 1020,458 L 1020,456 L 1019,456 L 1018,455 L 1019,454 L 1018,454 L 1017,453 L 1017,454 L 1016,455 L 1015,454 L 1015,453 Z" fill="#ff8731"/>
  <ns12:path xmlns:ns12="http://www.w3.org/2000/svg" d="M 262,453 L 262,454 L 261,455 L 260,455 L 259,456 L 258,456 L 256,458 L 256,460 L 254,462 L 254,465 L 251,468 L 250,468 L 250,469 L 247,472 L 247,473 L 246,474 L 246,475 L 245,476 L 245,477 L 244,478 L 243,478 L 243,479 L 242,480 L 241,480 L 241,481 L 240,482 L 240,483 L 239,484 L 236,484 L 236,485 L 235,486 L 234,486 L 234,490 L 233,491 L 232,490 L 233,491 L 229,495 L 228,495 L 227,496 L 227,497 L 226,498 L 226,500 L 224,502 L 223,501 L 224,502 L 224,503 L 223,504 L 222,504 L 222,505 L 218,509 L 217,509 L 216,510 L 215,510 L 215,511 L 213,513 L 214,514 L 213,515 L 213,516 L 212,517 L 211,517 L 211,518 L 205,524 L 204,524 L 204,527 L 202,529 L 202,530 L 199,533 L 199,534 L 198,535 L 196,535 L 194,537 L 194,538 L 193,539 L 193,541 L 192,542 L 192,543 L 191,544 L 190,544 L 184,550 L 184,551 L 183,552 L 183,553 L 181,555 L 181,556 L 179,558 L 179,559 L 178,560 L 177,560 L 176,561 L 176,562 L 175,563 L 174,563 L 173,564 L 173,570 L 172,571 L 174,573 L 174,574 L 175,575 L 175,576 L 176,577 L 177,577 L 179,579 L 180,579 L 182,581 L 183,581 L 186,584 L 189,584 L 190,585 L 192,585 L 194,587 L 197,587 L 198,588 L 199,588 L 200,589 L 202,589 L 203,590 L 207,590 L 209,592 L 210,591 L 211,592 L 212,592 L 213,593 L 214,593 L 215,594 L 217,594 L 218,595 L 220,595 L 223,598 L 224,598 L 225,599 L 227,599 L 228,600 L 233,600 L 237,604 L 238,604 L 239,605 L 243,605 L 245,607 L 247,607 L 248,608 L 249,608 L 250,609 L 251,609 L 252,610 L 253,610 L 254,611 L 255,610 L 257,612 L 260,612 L 262,614 L 265,614 L 267,616 L 269,616 L 270,617 L 272,617 L 273,616 L 274,617 L 274,618 L 275,618 L 276,619 L 276,620 L 277,620 L 278,619 L 279,620 L 280,620 L 281,621 L 282,621 L 286,625 L 292,625 L 293,626 L 295,626 L 297,628 L 298,628 L 299,629 L 299,630 L 301,630 L 302,631 L 305,631 L 306,632 L 308,632 L 310,634 L 311,634 L 312,635 L 313,635 L 314,634 L 315,634 L 316,635 L 317,635 L 318,634 L 320,636 L 321,636 L 322,635 L 323,636 L 325,636 L 326,635 L 327,635 L 328,634 L 329,634 L 329,633 L 327,631 L 328,630 L 327,629 L 328,628 L 328,623 L 326,621 L 326,616 L 325,615 L 325,614 L 324,613 L 324,610 L 323,609 L 323,608 L 324,607 L 322,605 L 322,604 L 321,603 L 321,601 L 320,601 L 319,600 L 320,599 L 320,598 L 319,597 L 319,593 L 317,591 L 318,590 L 318,588 L 317,587 L 317,586 L 316,585 L 316,581 L 315,581 L 314,580 L 314,574 L 313,573 L 313,570 L 311,568 L 311,566 L 309,564 L 310,563 L 310,562 L 309,561 L 309,558 L 308,557 L 308,556 L 307,555 L 308,554 L 308,552 L 306,550 L 306,546 L 304,544 L 304,541 L 303,540 L 303,534 L 301,532 L 301,530 L 300,530 L 299,529 L 299,526 L 298,525 L 298,508 L 300,506 L 300,504 L 301,503 L 300,502 L 301,501 L 302,501 L 303,500 L 303,498 L 305,496 L 305,494 L 308,491 L 308,490 L 309,489 L 308,488 L 308,485 L 309,484 L 309,483 L 311,481 L 310,480 L 310,479 L 311,478 L 312,478 L 312,476 L 313,475 L 313,468 L 314,467 L 314,466 L 313,465 L 312,465 L 310,463 L 308,463 L 305,460 L 304,460 L 303,461 L 301,461 L 300,460 L 300,459 L 299,459 L 298,458 L 295,458 L 295,459 L 294,460 L 293,460 L 292,459 L 293,458 L 292,458 L 291,459 L 288,459 L 285,456 L 285,455 L 283,455 L 281,457 L 280,457 L 278,455 L 279,454 L 278,454 L 277,453 L 276,453 L 277,453 L 278,454 L 277,455 L 273,455 L 272,454 L 272,453 L 271,453 L 270,454 L 269,453 L 268,453 L 267,454 L 266,454 L 265,453 Z" fill="#ff8731"/>
  <ns13:path xmlns:ns13="http://www.w3.org/2000/svg" d="M 255,420 Z" fill="#ff8731"/>
  <ns14:path xmlns:ns14="http://www.w3.org/2000/svg" d="M 514,401 L 515,401 Z" fill="#ff8731"/>
  <ns15:path xmlns:ns15="http://www.w3.org/2000/svg" d="M 506,399 Z" fill="#ff8731"/>
  <ns16:path xmlns:ns16="http://www.w3.org/2000/svg" d="M 735,396 Z" fill="#ff8731"/>
  <ns17:path xmlns:ns17="http://www.w3.org/2000/svg" d="M 448,386 Z" fill="#ff8731"/>
  <ns18:path xmlns:ns18="http://www.w3.org/2000/svg" d="M 683,381 L 684,382 Z" fill="#ff8731"/>
  <ns19:path xmlns:ns19="http://www.w3.org/2000/svg" d="M 596,381 L 598,381 Z" fill="#ff8731"/>
  <ns20:path xmlns:ns20="http://www.w3.org/2000/svg" d="M 611,379 L 611,380 L 610,381 L 609,380 L 607,380 L 606,381 L 604,381 L 603,382 L 602,382 L 601,383 L 597,383 L 596,384 L 593,384 L 591,386 L 589,384 L 589,385 L 586,388 L 585,387 L 583,387 L 582,386 L 579,386 L 579,387 L 580,386 L 582,388 L 581,389 L 578,389 L 577,390 L 574,390 L 573,389 L 574,390 L 571,393 L 570,393 L 569,392 L 568,392 L 567,391 L 563,391 L 563,392 L 565,392 L 566,393 L 565,394 L 562,394 L 560,396 L 558,394 L 556,394 L 556,395 L 553,398 L 552,397 L 549,397 L 548,398 L 547,397 L 546,397 L 547,397 L 548,398 L 547,399 L 545,399 L 543,401 L 541,401 L 540,400 L 540,401 L 539,402 L 538,402 L 537,403 L 536,402 L 530,402 L 529,401 L 528,402 L 527,402 L 528,403 L 527,404 L 526,404 L 525,403 L 524,403 L 522,401 L 521,402 L 518,402 L 516,404 L 515,403 L 511,403 L 509,401 L 509,400 L 508,400 L 507,401 L 503,401 L 501,399 L 501,398 L 500,397 L 499,397 L 498,396 L 495,399 L 494,398 L 488,398 L 487,397 L 486,397 L 485,396 L 486,395 L 485,395 L 484,396 L 483,396 L 482,395 L 481,396 L 479,396 L 478,395 L 477,395 L 476,394 L 476,393 L 475,392 L 474,392 L 475,393 L 474,394 L 470,394 L 469,393 L 469,392 L 467,394 L 466,393 L 464,393 L 463,392 L 463,390 L 462,390 L 461,391 L 458,391 L 457,390 L 456,390 L 455,389 L 455,388 L 454,387 L 453,388 L 447,388 L 446,389 L 445,389 L 440,394 L 440,395 L 439,396 L 439,397 L 438,398 L 438,399 L 434,403 L 434,404 L 433,405 L 433,406 L 430,409 L 430,410 L 428,412 L 428,414 L 427,415 L 426,415 L 426,416 L 425,417 L 425,418 L 423,420 L 423,421 L 421,423 L 421,424 L 419,426 L 419,427 L 418,428 L 418,429 L 415,432 L 415,433 L 413,435 L 413,436 L 412,437 L 412,438 L 409,441 L 409,442 L 407,444 L 407,445 L 405,447 L 405,448 L 402,451 L 402,453 L 400,455 L 400,456 L 398,458 L 398,459 L 391,466 L 391,468 L 389,470 L 389,471 L 387,473 L 386,473 L 386,474 L 385,475 L 384,475 L 383,476 L 384,477 L 383,478 L 383,479 L 382,480 L 382,481 L 380,483 L 380,484 L 379,485 L 379,486 L 378,487 L 378,488 L 377,489 L 376,489 L 376,490 L 375,491 L 374,490 L 373,491 L 373,493 L 372,494 L 373,495 L 370,498 L 370,499 L 369,500 L 369,501 L 368,502 L 368,503 L 367,504 L 366,504 L 366,505 L 365,506 L 364,505 L 363,506 L 363,508 L 362,509 L 362,511 L 360,513 L 360,514 L 359,515 L 359,516 L 353,522 L 352,522 L 352,526 L 351,527 L 350,527 L 348,529 L 348,530 L 347,531 L 347,532 L 346,533 L 346,534 L 342,538 L 342,545 L 341,546 L 342,547 L 342,548 L 346,552 L 346,553 L 347,554 L 347,555 L 348,554 L 349,555 L 349,558 L 352,561 L 352,562 L 353,562 L 355,564 L 356,564 L 357,565 L 357,566 L 356,567 L 360,571 L 360,572 L 361,572 L 362,573 L 362,574 L 363,574 L 364,575 L 364,577 L 368,581 L 368,582 L 367,583 L 368,582 L 369,582 L 370,583 L 370,585 L 371,585 L 372,586 L 372,587 L 373,588 L 373,589 L 377,593 L 377,594 L 378,595 L 379,595 L 380,596 L 380,598 L 381,599 L 381,600 L 382,600 L 383,601 L 383,602 L 385,604 L 385,605 L 386,605 L 387,606 L 387,608 L 390,611 L 390,612 L 391,613 L 392,613 L 393,614 L 393,616 L 396,619 L 396,620 L 401,625 L 401,626 L 402,626 L 403,627 L 403,629 L 405,631 L 405,632 L 406,633 L 406,634 L 407,634 L 408,635 L 408,636 L 409,637 L 409,638 L 411,640 L 411,641 L 412,641 L 413,642 L 413,643 L 414,644 L 414,645 L 415,645 L 417,647 L 417,648 L 419,650 L 419,651 L 420,651 L 421,652 L 421,653 L 423,655 L 423,656 L 424,657 L 424,658 L 427,661 L 427,662 L 428,662 L 429,663 L 428,664 L 432,668 L 432,669 L 431,670 L 432,669 L 433,669 L 434,670 L 434,671 L 437,674 L 438,674 L 439,675 L 438,676 L 441,679 L 441,680 L 444,683 L 444,690 L 442,692 L 442,694 L 441,695 L 441,696 L 439,698 L 439,705 L 437,707 L 437,709 L 436,710 L 436,711 L 435,712 L 435,714 L 434,715 L 434,716 L 435,717 L 434,718 L 434,720 L 433,721 L 433,722 L 432,723 L 432,724 L 431,725 L 431,726 L 430,727 L 430,728 L 429,729 L 429,735 L 428,736 L 428,737 L 426,739 L 426,741 L 425,742 L 425,743 L 424,744 L 424,748 L 422,750 L 422,752 L 421,753 L 421,759 L 422,760 L 422,761 L 433,772 L 434,772 L 435,773 L 435,774 L 437,776 L 436,777 L 438,777 L 440,779 L 443,779 L 444,780 L 444,781 L 443,782 L 444,783 L 444,784 L 445,784 L 446,783 L 447,783 L 448,784 L 448,785 L 447,786 L 448,785 L 449,786 L 449,787 L 450,788 L 449,789 L 453,789 L 454,790 L 454,792 L 455,793 L 455,794 L 457,794 L 458,795 L 459,795 L 460,796 L 460,797 L 461,797 L 465,801 L 465,802 L 466,803 L 467,803 L 477,813 L 478,812 L 498,832 L 498,833 L 499,833 L 501,835 L 502,835 L 503,836 L 504,835 L 505,836 L 505,839 L 506,840 L 506,841 L 507,840 L 508,840 L 510,842 L 510,843 L 511,844 L 511,846 L 512,845 L 514,845 L 516,847 L 516,851 L 517,850 L 518,851 L 519,851 L 524,856 L 525,856 L 526,857 L 526,859 L 527,859 L 530,862 L 531,862 L 532,863 L 531,864 L 533,864 L 534,865 L 534,866 L 535,866 L 537,868 L 537,869 L 538,869 L 542,873 L 542,874 L 545,874 L 557,886 L 557,887 L 558,887 L 560,889 L 559,890 L 560,891 L 561,890 L 562,891 L 562,892 L 564,892 L 567,895 L 567,897 L 568,897 L 569,896 L 570,896 L 571,897 L 571,898 L 572,899 L 571,900 L 572,901 L 572,902 L 573,902 L 574,901 L 575,901 L 576,902 L 576,903 L 577,904 L 577,907 L 579,907 L 580,906 L 583,909 L 582,910 L 583,911 L 582,912 L 584,912 L 585,911 L 586,912 L 586,913 L 588,915 L 589,915 L 593,919 L 593,920 L 595,920 L 596,921 L 596,922 L 597,923 L 597,924 L 598,924 L 601,927 L 601,928 L 602,928 L 603,929 L 604,929 L 605,930 L 606,929 L 607,930 L 608,929 L 609,930 L 611,930 L 612,929 L 615,929 L 615,925 L 616,924 L 617,924 L 618,923 L 618,922 L 620,920 L 620,915 L 621,914 L 621,912 L 620,911 L 619,911 L 618,910 L 618,909 L 617,910 L 616,909 L 616,907 L 614,905 L 614,904 L 610,904 L 609,903 L 609,902 L 607,902 L 606,901 L 606,900 L 603,897 L 602,897 L 601,896 L 601,895 L 594,888 L 594,887 L 593,886 L 592,886 L 591,885 L 591,884 L 590,884 L 589,883 L 588,884 L 587,884 L 586,883 L 587,882 L 586,883 L 585,882 L 585,881 L 584,881 L 583,880 L 583,879 L 582,878 L 581,878 L 580,877 L 580,876 L 579,876 L 578,875 L 578,874 L 576,874 L 575,873 L 576,872 L 575,871 L 574,871 L 573,870 L 573,869 L 572,869 L 568,865 L 568,864 L 565,861 L 567,859 L 566,858 L 568,856 L 569,857 L 570,857 L 570,856 L 571,855 L 573,855 L 576,852 L 577,852 L 578,851 L 579,852 L 580,851 L 580,850 L 581,849 L 582,849 L 583,850 L 587,846 L 589,846 L 590,845 L 591,845 L 592,844 L 592,843 L 594,841 L 595,841 L 596,840 L 597,841 L 600,838 L 602,838 L 603,837 L 604,837 L 605,836 L 606,836 L 606,835 L 607,834 L 608,834 L 609,833 L 610,833 L 610,832 L 612,830 L 613,830 L 613,829 L 614,828 L 615,828 L 616,827 L 617,827 L 618,826 L 618,762 L 617,761 L 617,759 L 616,758 L 615,758 L 613,756 L 613,755 L 611,755 L 612,755 L 613,756 L 612,757 L 608,757 L 605,760 L 602,760 L 601,761 L 599,761 L 599,762 L 598,763 L 598,764 L 594,768 L 590,768 L 590,769 L 588,771 L 587,770 L 588,771 L 586,773 L 585,773 L 585,774 L 584,775 L 583,775 L 582,776 L 581,775 L 580,776 L 580,777 L 579,778 L 578,778 L 575,781 L 574,780 L 573,781 L 572,781 L 572,782 L 568,786 L 567,786 L 566,785 L 565,786 L 564,786 L 565,787 L 564,788 L 563,788 L 561,790 L 560,790 L 559,791 L 556,791 L 557,792 L 553,796 L 548,796 L 548,797 L 547,798 L 546,798 L 547,799 L 547,800 L 546,801 L 545,801 L 544,800 L 543,801 L 544,801 L 545,802 L 544,803 L 543,803 L 542,804 L 538,804 L 539,805 L 538,806 L 536,806 L 537,807 L 535,809 L 534,809 L 533,810 L 533,811 L 532,812 L 528,812 L 529,813 L 528,814 L 527,814 L 525,816 L 524,816 L 523,817 L 522,817 L 521,816 L 519,816 L 518,817 L 516,817 L 515,816 L 516,815 L 514,815 L 511,812 L 510,812 L 508,810 L 507,810 L 506,809 L 506,808 L 505,807 L 504,808 L 503,807 L 503,805 L 502,805 L 501,804 L 501,802 L 500,801 L 499,801 L 498,800 L 497,800 L 496,799 L 496,798 L 495,797 L 495,796 L 494,796 L 491,793 L 491,792 L 490,791 L 489,791 L 486,788 L 486,786 L 484,786 L 483,785 L 482,786 L 480,784 L 479,784 L 478,783 L 478,782 L 475,779 L 474,779 L 473,778 L 473,777 L 470,774 L 469,774 L 468,773 L 468,772 L 462,766 L 461,766 L 460,765 L 460,764 L 459,763 L 458,764 L 456,764 L 454,762 L 454,761 L 453,761 L 452,760 L 452,759 L 451,759 L 450,758 L 450,757 L 449,756 L 448,756 L 447,755 L 447,752 L 446,751 L 446,750 L 447,749 L 447,747 L 446,746 L 446,743 L 448,741 L 448,739 L 449,738 L 449,737 L 450,736 L 451,736 L 451,734 L 452,733 L 451,732 L 451,729 L 452,728 L 451,727 L 452,726 L 453,726 L 453,723 L 455,721 L 456,721 L 457,720 L 457,716 L 456,715 L 456,714 L 457,713 L 456,712 L 457,711 L 458,711 L 458,708 L 460,706 L 461,706 L 462,705 L 461,704 L 461,703 L 460,702 L 461,701 L 461,698 L 462,697 L 462,696 L 465,693 L 466,693 L 466,691 L 467,690 L 467,677 L 466,677 L 465,676 L 465,675 L 462,672 L 462,671 L 461,671 L 460,670 L 460,668 L 459,667 L 459,666 L 457,664 L 457,663 L 456,662 L 456,661 L 454,659 L 454,658 L 452,658 L 451,657 L 451,656 L 449,654 L 449,653 L 448,654 L 447,653 L 447,650 L 446,650 L 445,649 L 445,648 L 444,647 L 444,646 L 443,646 L 441,644 L 442,643 L 440,641 L 440,640 L 439,639 L 439,638 L 438,638 L 434,634 L 434,633 L 433,633 L 432,632 L 432,631 L 431,630 L 431,629 L 429,627 L 429,625 L 428,625 L 426,623 L 426,622 L 425,622 L 424,621 L 425,620 L 425,619 L 423,617 L 422,617 L 416,611 L 416,609 L 413,606 L 413,605 L 411,603 L 411,602 L 409,600 L 409,599 L 408,598 L 408,597 L 403,592 L 403,591 L 402,591 L 401,590 L 401,587 L 400,587 L 399,586 L 399,585 L 398,584 L 397,584 L 396,583 L 396,582 L 394,580 L 394,579 L 393,578 L 393,577 L 392,577 L 391,576 L 391,574 L 388,571 L 388,569 L 387,569 L 386,568 L 386,567 L 383,564 L 384,563 L 383,562 L 383,561 L 381,561 L 378,558 L 378,557 L 376,555 L 376,554 L 375,553 L 374,553 L 373,552 L 373,549 L 372,548 L 371,548 L 370,547 L 370,540 L 369,539 L 369,538 L 371,536 L 371,534 L 373,532 L 374,532 L 377,529 L 377,528 L 379,526 L 379,525 L 378,524 L 380,522 L 381,522 L 384,519 L 384,518 L 383,517 L 383,516 L 384,515 L 385,516 L 385,515 L 386,514 L 387,514 L 388,513 L 388,512 L 389,511 L 389,510 L 390,509 L 390,507 L 391,506 L 392,506 L 393,505 L 393,504 L 394,503 L 394,502 L 395,501 L 395,500 L 396,499 L 397,499 L 398,498 L 398,497 L 399,496 L 399,495 L 400,494 L 400,493 L 404,489 L 404,488 L 405,487 L 405,485 L 406,484 L 407,484 L 408,483 L 408,481 L 409,480 L 410,480 L 410,478 L 413,475 L 413,474 L 415,472 L 415,470 L 417,468 L 418,468 L 418,466 L 419,465 L 420,465 L 420,464 L 421,463 L 421,462 L 424,459 L 424,458 L 425,457 L 425,456 L 424,455 L 426,453 L 427,453 L 428,452 L 428,451 L 429,450 L 430,450 L 430,449 L 431,448 L 431,445 L 432,444 L 433,445 L 434,444 L 433,443 L 434,442 L 435,442 L 436,441 L 436,440 L 435,439 L 437,437 L 438,437 L 439,436 L 439,435 L 441,433 L 441,432 L 440,431 L 441,430 L 443,430 L 444,429 L 444,427 L 445,426 L 446,427 L 446,425 L 447,424 L 448,424 L 448,423 L 449,422 L 449,420 L 450,419 L 451,419 L 451,418 L 455,414 L 456,414 L 457,413 L 462,413 L 463,414 L 463,415 L 464,414 L 466,414 L 467,415 L 472,415 L 473,416 L 474,416 L 475,415 L 476,416 L 477,415 L 478,416 L 478,418 L 479,417 L 480,418 L 481,417 L 482,418 L 484,418 L 486,420 L 487,420 L 488,419 L 490,419 L 491,420 L 494,420 L 495,421 L 500,421 L 501,422 L 501,423 L 506,423 L 508,425 L 510,425 L 511,424 L 513,426 L 514,425 L 517,425 L 518,426 L 523,426 L 524,427 L 523,428 L 527,428 L 528,427 L 529,427 L 530,426 L 534,426 L 535,425 L 538,425 L 539,424 L 541,424 L 543,422 L 544,422 L 545,421 L 546,422 L 547,421 L 549,421 L 550,420 L 551,420 L 552,419 L 555,419 L 556,418 L 557,418 L 558,417 L 562,417 L 563,416 L 565,416 L 566,415 L 568,415 L 569,414 L 573,414 L 575,412 L 577,412 L 578,411 L 579,411 L 580,410 L 583,410 L 584,409 L 587,409 L 589,407 L 592,407 L 593,406 L 594,406 L 595,405 L 598,405 L 599,404 L 603,404 L 604,403 L 604,402 L 605,401 L 609,401 L 609,400 L 610,399 L 611,400 L 616,400 L 617,399 L 618,399 L 620,397 L 620,396 L 619,395 L 619,393 L 616,390 L 616,388 L 614,386 L 615,385 L 616,385 L 614,383 L 614,381 L 613,380 L 613,379 Z" fill="#ff8731"/>
  <ns21:path xmlns:ns21="http://www.w3.org/2000/svg" d="M 665,377 L 664,378 L 663,378 L 663,379 L 662,380 L 661,380 L 660,381 L 659,381 L 659,390 L 658,391 L 657,391 L 657,395 L 658,396 L 657,397 L 659,399 L 665,399 L 666,400 L 666,401 L 667,400 L 668,401 L 669,401 L 670,402 L 670,403 L 673,403 L 674,404 L 676,404 L 677,405 L 678,404 L 680,406 L 681,405 L 683,405 L 684,406 L 685,405 L 688,408 L 689,408 L 690,407 L 692,409 L 693,409 L 694,410 L 695,410 L 696,409 L 697,410 L 700,410 L 701,411 L 704,411 L 706,413 L 707,413 L 708,412 L 710,414 L 711,414 L 712,415 L 716,415 L 717,416 L 720,416 L 721,417 L 721,418 L 724,418 L 725,419 L 727,419 L 728,420 L 729,419 L 731,421 L 735,421 L 736,422 L 736,423 L 741,423 L 742,424 L 743,424 L 744,425 L 745,425 L 746,424 L 748,426 L 749,426 L 750,425 L 751,426 L 753,424 L 755,424 L 756,423 L 759,423 L 760,422 L 763,422 L 764,421 L 767,421 L 768,420 L 772,420 L 773,419 L 778,419 L 779,418 L 782,418 L 783,417 L 787,417 L 787,416 L 788,415 L 789,415 L 790,416 L 792,416 L 794,414 L 795,414 L 796,415 L 797,415 L 798,414 L 804,414 L 806,412 L 807,412 L 808,411 L 813,411 L 814,410 L 815,411 L 822,411 L 823,412 L 823,416 L 824,415 L 825,415 L 826,416 L 826,418 L 829,421 L 828,422 L 829,421 L 830,422 L 830,423 L 831,424 L 831,425 L 833,427 L 833,430 L 835,430 L 836,431 L 836,432 L 837,433 L 837,434 L 841,438 L 841,439 L 843,441 L 843,442 L 846,445 L 846,447 L 847,447 L 848,448 L 848,449 L 849,450 L 849,451 L 850,451 L 851,452 L 851,453 L 852,454 L 852,455 L 853,456 L 853,457 L 856,460 L 856,461 L 858,463 L 858,464 L 859,465 L 859,466 L 860,466 L 861,467 L 861,468 L 862,469 L 862,470 L 864,472 L 864,473 L 866,475 L 866,476 L 869,479 L 869,481 L 872,484 L 872,485 L 874,487 L 874,488 L 877,491 L 877,493 L 878,493 L 879,494 L 879,495 L 880,496 L 880,497 L 882,499 L 882,500 L 884,502 L 884,503 L 887,506 L 887,508 L 888,508 L 889,509 L 889,510 L 890,511 L 890,512 L 892,514 L 892,515 L 894,517 L 894,518 L 895,519 L 895,520 L 896,520 L 897,521 L 897,522 L 899,524 L 899,526 L 902,529 L 902,530 L 903,531 L 904,531 L 905,532 L 905,535 L 906,536 L 907,536 L 908,537 L 908,538 L 909,539 L 909,540 L 911,542 L 908,545 L 908,546 L 907,547 L 906,547 L 906,548 L 902,552 L 901,552 L 900,553 L 900,556 L 896,560 L 896,561 L 895,562 L 895,563 L 894,564 L 894,565 L 890,569 L 890,570 L 889,571 L 888,571 L 888,572 L 887,573 L 885,573 L 885,576 L 881,580 L 881,581 L 880,582 L 880,583 L 879,584 L 879,585 L 876,588 L 876,589 L 873,592 L 873,593 L 871,595 L 871,596 L 870,597 L 869,597 L 867,599 L 867,600 L 863,604 L 863,606 L 860,609 L 860,610 L 858,612 L 858,613 L 857,614 L 857,615 L 855,617 L 855,618 L 853,620 L 853,621 L 852,622 L 851,622 L 851,623 L 846,628 L 845,628 L 845,630 L 844,631 L 844,632 L 842,634 L 842,635 L 839,638 L 839,639 L 838,640 L 838,641 L 835,644 L 835,645 L 832,648 L 832,649 L 831,650 L 830,649 L 829,650 L 829,651 L 828,652 L 828,654 L 826,656 L 825,656 L 825,657 L 823,659 L 823,661 L 819,665 L 819,666 L 815,670 L 814,670 L 814,671 L 813,672 L 813,673 L 812,674 L 812,675 L 808,679 L 808,681 L 807,682 L 807,683 L 808,684 L 807,685 L 810,688 L 810,689 L 811,689 L 812,690 L 812,692 L 813,693 L 813,696 L 812,697 L 813,698 L 813,699 L 816,702 L 816,705 L 817,705 L 818,706 L 818,711 L 817,712 L 818,712 L 819,713 L 819,715 L 821,717 L 821,719 L 822,719 L 823,720 L 823,724 L 824,725 L 824,726 L 823,727 L 823,728 L 824,729 L 824,730 L 825,731 L 825,732 L 826,733 L 826,735 L 827,734 L 828,735 L 828,743 L 829,744 L 829,745 L 830,746 L 830,749 L 831,750 L 831,751 L 830,752 L 831,753 L 829,755 L 828,755 L 828,756 L 826,758 L 825,758 L 825,759 L 824,760 L 823,760 L 822,761 L 820,761 L 819,762 L 819,763 L 818,764 L 818,765 L 817,766 L 816,766 L 815,767 L 814,767 L 813,768 L 813,770 L 812,771 L 810,771 L 810,772 L 809,773 L 808,773 L 808,776 L 807,777 L 806,776 L 805,776 L 803,778 L 803,781 L 802,782 L 801,781 L 800,781 L 801,782 L 800,783 L 799,783 L 798,784 L 797,784 L 795,786 L 795,787 L 788,794 L 787,794 L 786,795 L 785,795 L 784,796 L 782,796 L 782,797 L 780,799 L 779,799 L 780,800 L 779,801 L 777,801 L 777,802 L 761,818 L 760,818 L 759,817 L 756,817 L 755,818 L 754,817 L 753,817 L 752,816 L 753,815 L 752,815 L 749,812 L 748,812 L 746,810 L 744,810 L 742,808 L 742,807 L 740,807 L 739,808 L 738,808 L 736,806 L 737,805 L 738,805 L 737,805 L 736,804 L 735,805 L 734,804 L 734,802 L 733,801 L 732,802 L 730,802 L 729,801 L 730,800 L 731,800 L 729,800 L 725,796 L 725,797 L 724,798 L 723,797 L 723,795 L 721,795 L 719,793 L 719,792 L 718,791 L 718,790 L 717,789 L 716,789 L 715,788 L 714,788 L 713,787 L 711,787 L 710,786 L 709,786 L 707,784 L 707,783 L 706,782 L 706,781 L 705,781 L 704,780 L 703,781 L 702,781 L 701,780 L 701,779 L 698,776 L 696,776 L 694,774 L 693,774 L 691,772 L 691,771 L 689,771 L 688,772 L 687,771 L 687,770 L 688,769 L 684,769 L 683,768 L 683,766 L 682,766 L 681,765 L 680,766 L 679,765 L 679,764 L 678,764 L 677,763 L 676,764 L 675,763 L 675,762 L 676,761 L 674,761 L 673,762 L 672,761 L 671,761 L 670,760 L 670,759 L 671,758 L 670,758 L 669,757 L 669,756 L 668,756 L 667,755 L 665,755 L 666,756 L 665,757 L 664,757 L 663,756 L 663,757 L 660,760 L 659,760 L 659,762 L 658,763 L 658,764 L 659,765 L 658,766 L 658,768 L 659,769 L 659,783 L 658,784 L 658,788 L 659,789 L 659,793 L 658,794 L 659,795 L 659,827 L 658,828 L 662,832 L 662,833 L 663,833 L 665,835 L 667,835 L 668,836 L 671,836 L 675,840 L 675,841 L 676,840 L 677,841 L 678,841 L 680,843 L 681,843 L 682,844 L 682,845 L 683,845 L 684,846 L 685,845 L 686,846 L 689,846 L 690,847 L 690,850 L 691,851 L 692,851 L 693,850 L 694,851 L 696,851 L 700,855 L 701,855 L 702,856 L 704,856 L 705,857 L 705,858 L 707,858 L 708,859 L 709,859 L 710,860 L 710,861 L 709,862 L 709,863 L 710,864 L 709,865 L 708,865 L 707,866 L 707,867 L 696,878 L 695,878 L 694,877 L 694,878 L 692,880 L 691,880 L 691,881 L 690,882 L 690,883 L 689,884 L 688,884 L 687,885 L 686,884 L 686,885 L 685,886 L 685,888 L 684,889 L 683,889 L 682,888 L 681,889 L 681,890 L 680,891 L 680,893 L 679,894 L 678,894 L 676,896 L 675,896 L 672,899 L 672,900 L 671,901 L 670,901 L 659,912 L 658,912 L 657,913 L 656,913 L 654,915 L 654,922 L 655,923 L 655,925 L 661,931 L 662,931 L 664,933 L 665,932 L 668,932 L 669,931 L 671,931 L 672,930 L 672,929 L 673,928 L 674,928 L 676,926 L 676,925 L 678,923 L 679,923 L 679,922 L 680,921 L 681,921 L 682,920 L 682,919 L 686,915 L 687,915 L 688,914 L 689,914 L 688,913 L 689,912 L 692,912 L 693,911 L 694,911 L 697,908 L 696,907 L 697,906 L 698,906 L 698,905 L 699,904 L 700,904 L 703,901 L 704,901 L 703,900 L 704,899 L 705,899 L 705,898 L 706,897 L 707,898 L 707,896 L 708,895 L 709,896 L 713,892 L 714,892 L 714,891 L 715,890 L 716,891 L 717,891 L 717,890 L 718,889 L 718,888 L 719,887 L 720,887 L 722,885 L 722,884 L 724,882 L 726,882 L 726,881 L 727,880 L 728,880 L 728,877 L 729,876 L 730,876 L 732,874 L 733,874 L 733,873 L 734,872 L 735,872 L 735,871 L 737,869 L 738,869 L 738,868 L 739,867 L 740,867 L 740,866 L 742,864 L 743,864 L 743,863 L 747,859 L 748,859 L 748,858 L 750,856 L 751,856 L 752,855 L 755,855 L 756,854 L 755,853 L 756,852 L 757,852 L 758,851 L 759,851 L 759,850 L 760,849 L 761,849 L 760,848 L 761,847 L 763,847 L 767,843 L 767,841 L 768,840 L 769,841 L 776,834 L 777,835 L 778,835 L 779,834 L 779,833 L 782,830 L 783,830 L 784,829 L 783,828 L 784,827 L 785,827 L 788,824 L 789,824 L 789,823 L 790,822 L 790,821 L 791,820 L 792,820 L 794,818 L 794,815 L 795,814 L 796,815 L 797,815 L 799,813 L 799,812 L 801,810 L 802,810 L 802,809 L 804,807 L 805,807 L 805,806 L 806,805 L 807,805 L 807,804 L 808,803 L 809,803 L 809,802 L 811,800 L 812,800 L 812,799 L 813,798 L 814,799 L 814,797 L 816,795 L 817,795 L 818,794 L 819,794 L 820,793 L 819,792 L 820,791 L 822,791 L 821,790 L 822,789 L 823,789 L 824,788 L 827,788 L 828,787 L 827,786 L 828,785 L 829,785 L 832,782 L 833,782 L 833,781 L 834,780 L 835,780 L 839,776 L 840,776 L 840,775 L 842,773 L 845,773 L 845,772 L 848,769 L 849,769 L 850,768 L 850,767 L 853,764 L 854,764 L 856,762 L 855,761 L 856,760 L 856,749 L 854,747 L 854,745 L 853,745 L 852,744 L 852,743 L 851,742 L 852,741 L 851,740 L 851,734 L 849,732 L 849,731 L 847,729 L 847,727 L 846,726 L 846,723 L 845,722 L 846,721 L 846,718 L 845,718 L 844,717 L 844,715 L 842,713 L 842,712 L 841,711 L 841,708 L 840,707 L 840,703 L 839,702 L 839,700 L 837,698 L 837,696 L 836,695 L 836,694 L 835,693 L 835,690 L 834,689 L 834,688 L 833,687 L 833,685 L 834,684 L 833,683 L 835,681 L 834,680 L 836,678 L 838,678 L 838,676 L 839,675 L 839,673 L 840,672 L 840,671 L 841,670 L 842,671 L 843,670 L 842,669 L 843,668 L 844,668 L 845,667 L 845,666 L 846,665 L 847,665 L 847,662 L 849,660 L 850,660 L 850,659 L 852,657 L 853,657 L 853,656 L 854,655 L 854,654 L 856,652 L 856,651 L 857,650 L 858,650 L 859,649 L 858,648 L 859,647 L 860,647 L 861,646 L 861,645 L 863,643 L 863,642 L 865,640 L 865,638 L 866,637 L 867,637 L 866,636 L 867,635 L 869,635 L 870,634 L 870,633 L 871,632 L 870,631 L 873,628 L 874,628 L 874,627 L 876,625 L 875,624 L 877,622 L 878,622 L 879,621 L 879,620 L 882,617 L 881,616 L 883,614 L 885,614 L 885,611 L 886,610 L 887,611 L 886,610 L 887,609 L 888,609 L 889,608 L 889,607 L 891,605 L 890,604 L 890,603 L 891,602 L 892,602 L 893,601 L 894,601 L 894,599 L 895,598 L 896,598 L 897,597 L 897,596 L 898,595 L 899,595 L 898,595 L 897,594 L 898,593 L 901,593 L 901,592 L 902,591 L 902,589 L 903,588 L 904,588 L 905,587 L 905,586 L 906,585 L 906,584 L 907,583 L 906,582 L 907,581 L 909,581 L 910,580 L 910,579 L 911,578 L 911,577 L 912,576 L 911,575 L 913,573 L 914,573 L 917,570 L 917,569 L 919,567 L 920,567 L 920,566 L 922,564 L 922,563 L 923,562 L 923,561 L 924,560 L 925,560 L 925,558 L 926,557 L 927,557 L 927,556 L 928,555 L 928,554 L 930,552 L 930,551 L 931,550 L 932,550 L 933,549 L 933,548 L 934,547 L 935,547 L 935,546 L 936,545 L 937,545 L 938,544 L 938,542 L 936,540 L 936,539 L 935,539 L 934,538 L 934,537 L 933,536 L 933,535 L 931,533 L 931,531 L 930,531 L 928,529 L 928,527 L 926,525 L 926,524 L 923,521 L 923,520 L 922,520 L 921,519 L 921,517 L 920,516 L 920,515 L 919,515 L 918,514 L 918,512 L 917,512 L 916,511 L 916,509 L 915,508 L 914,508 L 913,507 L 913,505 L 911,503 L 911,501 L 910,500 L 909,500 L 908,499 L 908,497 L 906,495 L 906,494 L 905,494 L 904,493 L 905,492 L 904,492 L 903,491 L 903,490 L 901,488 L 901,486 L 900,486 L 898,484 L 898,482 L 897,481 L 896,481 L 895,480 L 896,479 L 895,478 L 895,477 L 894,477 L 892,475 L 892,474 L 890,472 L 890,471 L 888,469 L 888,468 L 887,467 L 887,466 L 886,466 L 885,465 L 885,463 L 884,462 L 884,461 L 880,457 L 880,456 L 879,455 L 879,454 L 877,452 L 877,451 L 875,449 L 875,448 L 874,447 L 874,446 L 873,446 L 872,445 L 872,443 L 871,442 L 871,441 L 869,439 L 869,438 L 867,438 L 866,437 L 866,436 L 864,434 L 864,432 L 863,432 L 862,431 L 862,430 L 861,429 L 861,426 L 860,425 L 859,425 L 858,424 L 859,423 L 858,423 L 854,419 L 854,417 L 853,417 L 852,416 L 852,415 L 851,414 L 851,412 L 850,412 L 849,411 L 850,410 L 850,409 L 848,407 L 846,407 L 845,406 L 845,405 L 844,404 L 844,403 L 842,401 L 842,400 L 841,399 L 841,397 L 840,397 L 839,396 L 840,395 L 839,394 L 839,393 L 837,391 L 836,391 L 834,389 L 834,388 L 833,387 L 832,387 L 830,385 L 830,384 L 828,384 L 827,385 L 825,385 L 823,387 L 822,386 L 821,387 L 817,387 L 816,386 L 815,386 L 814,387 L 813,386 L 811,386 L 810,387 L 811,387 L 812,388 L 811,389 L 808,389 L 807,390 L 806,390 L 805,389 L 801,389 L 801,390 L 799,392 L 795,392 L 794,391 L 791,391 L 790,390 L 789,391 L 788,391 L 788,392 L 789,392 L 790,393 L 789,394 L 787,394 L 785,396 L 784,396 L 782,394 L 778,394 L 779,395 L 776,398 L 775,398 L 774,397 L 768,397 L 767,396 L 765,396 L 764,397 L 765,398 L 764,399 L 762,399 L 761,400 L 758,400 L 755,403 L 747,403 L 746,402 L 745,403 L 744,402 L 744,400 L 743,400 L 742,399 L 742,397 L 737,397 L 736,398 L 730,398 L 729,397 L 729,395 L 728,394 L 728,395 L 727,396 L 726,395 L 722,395 L 721,394 L 721,393 L 720,392 L 719,393 L 717,391 L 716,391 L 715,392 L 713,392 L 712,391 L 712,390 L 710,390 L 709,391 L 708,390 L 707,390 L 706,389 L 706,387 L 704,387 L 703,386 L 701,386 L 702,387 L 701,388 L 700,388 L 699,387 L 698,388 L 697,388 L 696,387 L 696,385 L 695,385 L 694,384 L 695,385 L 694,386 L 693,386 L 691,384 L 690,385 L 689,385 L 688,384 L 688,383 L 687,382 L 688,383 L 687,384 L 683,384 L 682,383 L 681,383 L 680,382 L 679,383 L 678,382 L 678,381 L 677,380 L 677,379 L 676,380 L 675,379 L 675,377 L 673,377 L 672,378 L 667,378 L 666,377 Z" fill="#ff8731"/>
  <ns22:path xmlns:ns22="http://www.w3.org/2000/svg" d="M 918,359 Z" fill="#ff8731"/>
  <ns23:path xmlns:ns23="http://www.w3.org/2000/svg" d="M 567,285 Z" fill="#ff8731"/>
  <ns24:path xmlns:ns24="http://www.w3.org/2000/svg" d="M 1061,265 Z" fill="#ff8731"/>
  <ns25:path xmlns:ns25="http://www.w3.org/2000/svg" d="M 1042,260 Z" fill="#ff8731"/>
  <ns26:path xmlns:ns26="http://www.w3.org/2000/svg" d="M 1027,255 Z" fill="#ff8731"/>
  <ns27:path xmlns:ns27="http://www.w3.org/2000/svg" d="M 1013,252 Z" fill="#ff8731"/>
  <ns28:path xmlns:ns28="http://www.w3.org/2000/svg" d="M 302,241 Z" fill="#ff8731"/>
  <ns29:path xmlns:ns29="http://www.w3.org/2000/svg" d="M 387,215 Z" fill="#ff8731"/>
  <ns30:path xmlns:ns30="http://www.w3.org/2000/svg" d="M 565,206 Z" fill="#ff8731"/>
  <ns31:path xmlns:ns31="http://www.w3.org/2000/svg" d="M 437,200 L 438,200 Z" fill="#ff8731"/>
  <ns32:path xmlns:ns32="http://www.w3.org/2000/svg" d="M 836,198 L 837,199 Z" fill="#ff8731"/>
  <ns33:path xmlns:ns33="http://www.w3.org/2000/svg" d="M 790,185 Z" fill="#ff8731"/>
  <ns34:path xmlns:ns34="http://www.w3.org/2000/svg" d="M 768,179 Z" fill="#ff8731"/>
  <ns35:path xmlns:ns35="http://www.w3.org/2000/svg" d="M 745,171 L 745,172 L 743,174 L 740,174 L 740,175 L 739,176 L 737,176 L 734,179 L 734,181 L 732,183 L 732,185 L 731,186 L 730,186 L 728,188 L 727,188 L 726,189 L 726,191 L 725,192 L 725,194 L 724,195 L 723,195 L 721,197 L 721,199 L 720,200 L 720,201 L 718,203 L 717,203 L 717,205 L 715,207 L 715,208 L 712,211 L 712,212 L 711,213 L 711,214 L 710,215 L 710,216 L 707,219 L 707,220 L 704,223 L 703,223 L 701,225 L 700,225 L 700,229 L 698,231 L 697,231 L 697,232 L 696,233 L 696,234 L 694,236 L 694,237 L 691,240 L 691,241 L 689,243 L 689,245 L 688,246 L 687,246 L 687,247 L 686,248 L 686,249 L 684,251 L 684,252 L 682,254 L 682,255 L 678,259 L 676,259 L 676,260 L 674,262 L 675,263 L 674,264 L 674,265 L 672,267 L 671,267 L 670,268 L 670,271 L 668,273 L 668,274 L 667,275 L 666,275 L 666,276 L 665,277 L 665,278 L 664,279 L 663,279 L 664,280 L 659,285 L 659,289 L 658,290 L 658,292 L 656,294 L 657,295 L 657,298 L 656,299 L 656,300 L 657,301 L 657,302 L 656,303 L 656,320 L 657,321 L 656,322 L 656,326 L 657,327 L 657,328 L 656,329 L 657,330 L 657,332 L 656,333 L 656,334 L 657,335 L 656,336 L 657,337 L 658,337 L 659,338 L 658,339 L 661,342 L 662,342 L 663,343 L 663,344 L 664,344 L 665,343 L 666,343 L 667,344 L 668,343 L 669,343 L 671,341 L 672,341 L 672,340 L 673,339 L 674,339 L 674,338 L 675,337 L 676,337 L 676,336 L 677,335 L 677,334 L 679,332 L 679,331 L 680,330 L 679,329 L 679,328 L 680,327 L 681,328 L 681,327 L 682,326 L 682,325 L 683,324 L 684,324 L 687,321 L 687,318 L 688,317 L 689,317 L 692,314 L 692,311 L 693,310 L 694,310 L 695,309 L 695,308 L 697,306 L 697,304 L 698,303 L 698,302 L 700,300 L 700,297 L 704,293 L 705,293 L 707,291 L 707,289 L 710,286 L 710,285 L 712,283 L 712,281 L 715,278 L 718,278 L 719,277 L 778,277 L 779,278 L 783,278 L 788,283 L 788,284 L 790,286 L 790,287 L 793,290 L 792,291 L 793,290 L 795,292 L 795,293 L 796,293 L 798,295 L 797,296 L 798,295 L 799,296 L 799,297 L 800,298 L 801,298 L 802,299 L 802,301 L 803,302 L 803,303 L 804,302 L 807,305 L 807,307 L 808,308 L 809,308 L 810,309 L 810,310 L 813,313 L 813,314 L 814,314 L 816,316 L 816,317 L 817,316 L 818,317 L 818,320 L 821,323 L 820,324 L 821,325 L 822,324 L 823,325 L 823,326 L 824,326 L 825,327 L 825,328 L 826,329 L 826,330 L 827,329 L 828,330 L 828,333 L 829,334 L 830,333 L 831,334 L 831,335 L 832,336 L 832,337 L 840,345 L 841,345 L 842,346 L 843,346 L 844,345 L 845,346 L 849,346 L 850,347 L 851,346 L 852,346 L 853,345 L 854,345 L 856,347 L 858,347 L 859,346 L 860,346 L 861,347 L 862,346 L 863,347 L 864,346 L 865,347 L 866,347 L 867,346 L 868,347 L 869,346 L 888,346 L 889,345 L 892,345 L 893,344 L 897,344 L 898,345 L 897,346 L 900,346 L 903,349 L 904,348 L 906,350 L 907,350 L 911,354 L 913,354 L 914,355 L 917,355 L 921,359 L 920,360 L 921,361 L 922,361 L 922,360 L 923,359 L 924,360 L 924,361 L 925,362 L 925,363 L 926,362 L 928,364 L 928,367 L 929,367 L 930,368 L 930,370 L 931,371 L 931,372 L 932,372 L 933,373 L 933,377 L 934,377 L 935,378 L 935,380 L 936,381 L 936,383 L 937,383 L 938,384 L 937,385 L 939,387 L 939,388 L 940,389 L 940,391 L 941,392 L 941,393 L 943,395 L 943,397 L 944,398 L 944,399 L 945,399 L 946,400 L 945,401 L 945,403 L 946,404 L 946,405 L 947,405 L 948,406 L 948,407 L 949,408 L 948,409 L 951,412 L 951,414 L 953,416 L 953,417 L 954,418 L 953,419 L 954,420 L 954,421 L 956,423 L 956,425 L 957,425 L 958,426 L 958,430 L 961,433 L 961,435 L 962,436 L 963,435 L 966,435 L 967,436 L 974,436 L 975,435 L 977,435 L 978,436 L 979,436 L 980,435 L 984,435 L 985,434 L 987,434 L 987,433 L 988,432 L 992,432 L 993,431 L 994,432 L 995,431 L 997,431 L 998,430 L 1000,430 L 1003,427 L 1005,427 L 1006,426 L 1007,427 L 1008,426 L 1011,426 L 1011,425 L 1012,424 L 1014,424 L 1014,423 L 1016,421 L 1018,421 L 1019,420 L 1020,420 L 1021,419 L 1022,419 L 1022,415 L 1023,414 L 1025,414 L 1025,409 L 1026,408 L 1027,409 L 1030,406 L 1030,402 L 1031,401 L 1032,402 L 1032,401 L 1035,398 L 1034,397 L 1038,393 L 1038,392 L 1040,390 L 1040,388 L 1045,383 L 1045,381 L 1048,378 L 1048,377 L 1050,375 L 1050,374 L 1051,373 L 1051,372 L 1053,370 L 1053,369 L 1055,367 L 1055,366 L 1056,365 L 1056,364 L 1058,362 L 1058,361 L 1059,360 L 1060,360 L 1060,358 L 1063,355 L 1063,354 L 1065,352 L 1065,351 L 1066,350 L 1066,349 L 1071,344 L 1071,341 L 1072,340 L 1073,340 L 1074,339 L 1074,338 L 1075,337 L 1075,336 L 1076,335 L 1076,334 L 1077,333 L 1078,333 L 1078,332 L 1081,329 L 1081,327 L 1080,326 L 1081,325 L 1082,325 L 1084,323 L 1084,322 L 1085,321 L 1085,320 L 1086,319 L 1086,317 L 1087,316 L 1088,317 L 1088,316 L 1089,315 L 1089,314 L 1090,313 L 1089,312 L 1090,311 L 1091,311 L 1092,310 L 1092,309 L 1095,306 L 1096,306 L 1096,304 L 1097,303 L 1096,302 L 1097,301 L 1098,301 L 1098,300 L 1100,298 L 1100,297 L 1101,296 L 1101,295 L 1102,294 L 1102,292 L 1103,291 L 1104,291 L 1107,288 L 1107,287 L 1106,287 L 1105,286 L 1105,284 L 1103,284 L 1102,283 L 1102,282 L 1101,283 L 1099,281 L 1099,280 L 1098,281 L 1097,280 L 1096,280 L 1095,279 L 1093,279 L 1091,277 L 1090,277 L 1089,276 L 1090,275 L 1089,274 L 1089,275 L 1088,276 L 1087,275 L 1087,274 L 1086,274 L 1085,275 L 1084,275 L 1083,274 L 1082,275 L 1080,273 L 1080,272 L 1079,272 L 1078,273 L 1077,272 L 1077,270 L 1076,270 L 1075,269 L 1073,269 L 1072,268 L 1071,269 L 1070,269 L 1069,270 L 1067,268 L 1068,269 L 1067,270 L 1066,270 L 1065,269 L 1063,269 L 1062,268 L 1063,267 L 1064,267 L 1061,267 L 1060,268 L 1058,268 L 1057,267 L 1057,266 L 1058,265 L 1059,266 L 1057,264 L 1056,264 L 1055,263 L 1052,263 L 1053,264 L 1052,265 L 1048,265 L 1047,264 L 1046,264 L 1045,263 L 1046,262 L 1045,263 L 1044,262 L 1043,262 L 1042,263 L 1040,263 L 1039,262 L 1040,261 L 1039,260 L 1039,259 L 1038,259 L 1037,258 L 1034,258 L 1033,259 L 1031,259 L 1030,260 L 1029,259 L 1029,257 L 1027,257 L 1026,258 L 1025,257 L 1025,256 L 1024,255 L 1025,254 L 1023,254 L 1022,253 L 1018,253 L 1020,253 L 1021,254 L 1020,255 L 1018,255 L 1017,256 L 1016,255 L 1016,253 L 1015,254 L 1011,254 L 1010,253 L 1010,252 L 1009,253 L 1007,251 L 1006,251 L 1005,250 L 1006,249 L 1005,249 L 1004,248 L 1001,248 L 1002,249 L 1001,250 L 1000,250 L 999,249 L 995,249 L 993,247 L 992,247 L 991,248 L 990,247 L 989,247 L 988,246 L 988,245 L 989,244 L 988,244 L 987,243 L 983,243 L 982,244 L 979,244 L 974,239 L 973,239 L 972,238 L 967,238 L 966,239 L 965,238 L 964,239 L 960,239 L 959,238 L 960,237 L 959,236 L 960,237 L 959,238 L 958,238 L 956,236 L 957,235 L 956,234 L 955,234 L 954,233 L 950,233 L 949,234 L 948,234 L 947,233 L 946,234 L 944,234 L 941,231 L 940,232 L 939,231 L 939,230 L 938,231 L 937,231 L 936,230 L 937,229 L 936,228 L 932,228 L 931,229 L 926,229 L 925,228 L 924,228 L 923,227 L 923,226 L 922,226 L 921,225 L 922,224 L 923,224 L 922,223 L 921,223 L 920,222 L 919,222 L 918,223 L 917,223 L 916,224 L 915,224 L 914,223 L 914,222 L 912,224 L 911,224 L 909,222 L 910,221 L 909,222 L 908,221 L 907,221 L 906,222 L 905,221 L 905,220 L 903,218 L 902,218 L 901,217 L 899,217 L 899,218 L 898,219 L 894,219 L 893,218 L 891,218 L 890,217 L 890,216 L 889,215 L 890,214 L 889,213 L 888,213 L 887,212 L 880,212 L 880,214 L 879,215 L 878,214 L 878,213 L 876,213 L 875,212 L 876,211 L 875,211 L 874,210 L 874,209 L 874,210 L 873,211 L 872,210 L 872,208 L 869,208 L 868,207 L 865,207 L 865,208 L 864,209 L 863,208 L 863,207 L 862,207 L 862,208 L 861,209 L 860,208 L 859,208 L 858,207 L 859,206 L 859,205 L 858,206 L 857,206 L 856,205 L 856,204 L 855,204 L 854,205 L 853,205 L 852,204 L 853,203 L 852,203 L 851,202 L 848,202 L 848,203 L 847,204 L 846,204 L 845,203 L 845,202 L 844,203 L 841,203 L 840,202 L 840,201 L 838,201 L 837,202 L 836,201 L 835,201 L 833,199 L 834,198 L 833,197 L 829,197 L 829,198 L 828,199 L 827,198 L 827,197 L 826,198 L 824,196 L 824,195 L 823,194 L 822,195 L 821,194 L 821,193 L 820,193 L 819,192 L 817,192 L 816,191 L 815,192 L 814,192 L 813,193 L 812,192 L 811,192 L 810,193 L 809,193 L 808,192 L 807,192 L 806,191 L 807,190 L 806,191 L 803,188 L 801,188 L 800,187 L 797,187 L 796,188 L 790,188 L 788,186 L 788,185 L 787,185 L 786,184 L 787,185 L 786,186 L 784,186 L 783,185 L 783,182 L 781,182 L 780,181 L 778,181 L 779,182 L 778,183 L 777,183 L 776,182 L 775,183 L 774,183 L 773,182 L 773,180 L 772,179 L 770,179 L 771,180 L 770,181 L 767,181 L 765,179 L 765,177 L 764,177 L 763,176 L 761,176 L 761,177 L 760,178 L 755,178 L 754,177 L 753,177 L 751,175 L 751,173 L 750,172 L 749,172 L 748,171 Z" fill="#ff8731"/>
  <ns36:path xmlns:ns36="http://www.w3.org/2000/svg" d="M 533,171 L 532,172 L 532,173 L 531,174 L 528,174 L 527,175 L 526,174 L 523,174 L 524,175 L 523,176 L 521,176 L 519,178 L 518,177 L 517,177 L 516,176 L 516,175 L 514,175 L 513,176 L 512,176 L 514,178 L 513,179 L 511,179 L 509,181 L 508,180 L 505,183 L 504,182 L 500,182 L 498,180 L 496,180 L 495,181 L 494,181 L 494,183 L 492,185 L 489,185 L 489,186 L 488,187 L 485,187 L 484,188 L 483,187 L 482,187 L 480,185 L 478,185 L 477,186 L 476,186 L 476,189 L 475,190 L 471,190 L 473,190 L 474,191 L 473,192 L 469,192 L 468,193 L 467,192 L 466,192 L 465,191 L 465,190 L 462,190 L 461,191 L 461,192 L 460,193 L 460,194 L 458,196 L 455,193 L 453,193 L 452,194 L 454,196 L 453,197 L 452,197 L 451,198 L 450,198 L 449,197 L 448,197 L 446,195 L 445,195 L 444,196 L 443,196 L 443,197 L 442,198 L 442,199 L 439,202 L 437,202 L 436,203 L 435,202 L 433,202 L 432,203 L 431,202 L 430,202 L 429,201 L 429,200 L 428,201 L 426,201 L 425,202 L 425,203 L 423,205 L 422,205 L 422,206 L 421,207 L 420,206 L 420,205 L 420,207 L 419,208 L 418,208 L 417,209 L 416,208 L 416,207 L 415,208 L 413,206 L 410,206 L 410,207 L 409,208 L 410,209 L 408,211 L 407,211 L 406,210 L 404,210 L 403,209 L 404,208 L 403,208 L 402,209 L 402,211 L 399,214 L 398,213 L 397,213 L 395,211 L 393,211 L 391,213 L 393,213 L 394,214 L 393,215 L 391,215 L 389,217 L 386,217 L 385,218 L 383,218 L 382,219 L 380,217 L 379,217 L 378,216 L 375,216 L 374,217 L 374,218 L 373,219 L 373,220 L 372,221 L 371,221 L 370,222 L 369,221 L 369,222 L 367,224 L 366,224 L 365,223 L 364,223 L 362,221 L 360,221 L 359,222 L 358,222 L 358,225 L 357,226 L 355,226 L 354,227 L 353,227 L 352,228 L 351,228 L 350,229 L 349,228 L 346,228 L 345,227 L 345,226 L 343,226 L 342,227 L 341,227 L 340,228 L 340,229 L 338,231 L 335,231 L 335,232 L 333,234 L 332,233 L 330,233 L 329,232 L 329,231 L 327,231 L 326,232 L 325,232 L 325,235 L 324,236 L 323,236 L 322,237 L 321,236 L 321,235 L 319,235 L 318,234 L 317,235 L 317,236 L 319,236 L 320,237 L 319,238 L 316,238 L 315,239 L 314,239 L 313,238 L 312,238 L 311,237 L 311,236 L 309,236 L 307,238 L 307,240 L 306,241 L 304,241 L 304,242 L 303,243 L 300,243 L 300,244 L 299,245 L 298,244 L 297,244 L 296,243 L 294,243 L 293,242 L 293,241 L 292,241 L 291,242 L 290,242 L 289,243 L 289,244 L 287,246 L 285,246 L 286,247 L 285,248 L 282,248 L 281,249 L 280,248 L 279,249 L 278,249 L 277,248 L 276,248 L 275,247 L 272,247 L 272,248 L 271,249 L 271,250 L 270,251 L 269,251 L 268,252 L 267,251 L 266,251 L 266,253 L 265,254 L 261,254 L 259,252 L 257,252 L 256,253 L 256,254 L 258,254 L 259,255 L 258,256 L 255,256 L 254,257 L 253,257 L 252,256 L 250,256 L 249,255 L 250,254 L 249,255 L 248,255 L 249,256 L 249,257 L 248,258 L 247,258 L 246,259 L 245,259 L 244,258 L 243,258 L 242,257 L 239,257 L 238,258 L 238,259 L 239,259 L 240,260 L 239,261 L 237,261 L 235,263 L 234,262 L 234,261 L 232,261 L 231,260 L 230,260 L 230,263 L 229,264 L 226,264 L 224,262 L 222,262 L 220,264 L 222,264 L 223,265 L 222,266 L 220,266 L 219,267 L 217,267 L 216,266 L 215,266 L 215,268 L 213,270 L 212,270 L 211,269 L 210,269 L 209,268 L 209,267 L 208,267 L 207,268 L 205,268 L 205,269 L 207,269 L 208,270 L 207,271 L 205,271 L 204,272 L 202,272 L 201,273 L 200,273 L 199,274 L 192,274 L 191,273 L 188,273 L 188,274 L 189,275 L 188,276 L 186,276 L 185,277 L 185,278 L 184,279 L 182,279 L 181,280 L 179,280 L 178,281 L 176,281 L 175,282 L 175,283 L 173,285 L 173,288 L 172,289 L 172,290 L 173,289 L 174,290 L 174,291 L 175,292 L 174,293 L 175,294 L 175,295 L 176,296 L 176,297 L 177,297 L 179,299 L 179,300 L 180,301 L 180,302 L 182,304 L 182,305 L 183,306 L 183,307 L 186,310 L 186,311 L 187,311 L 188,312 L 188,314 L 190,316 L 190,317 L 191,318 L 191,319 L 192,319 L 193,320 L 193,321 L 194,322 L 194,323 L 195,324 L 195,325 L 196,326 L 196,328 L 197,328 L 198,329 L 198,331 L 199,332 L 199,333 L 200,333 L 203,336 L 202,337 L 204,339 L 204,340 L 205,339 L 206,340 L 206,343 L 207,343 L 208,344 L 208,345 L 209,346 L 208,347 L 209,348 L 209,349 L 210,348 L 211,349 L 211,351 L 212,351 L 213,352 L 213,353 L 214,354 L 214,355 L 215,354 L 216,355 L 216,358 L 219,361 L 219,362 L 220,363 L 219,364 L 221,364 L 222,365 L 221,366 L 223,368 L 223,369 L 224,370 L 225,370 L 226,371 L 226,372 L 227,373 L 227,375 L 228,375 L 229,376 L 229,379 L 230,379 L 231,380 L 231,381 L 232,382 L 232,384 L 233,383 L 234,384 L 234,386 L 236,388 L 236,389 L 237,390 L 237,391 L 238,391 L 239,392 L 239,394 L 240,395 L 241,395 L 242,396 L 242,399 L 243,398 L 244,399 L 244,401 L 247,404 L 247,407 L 248,407 L 250,409 L 250,410 L 252,412 L 252,414 L 253,413 L 254,414 L 254,416 L 263,425 L 264,425 L 265,426 L 266,425 L 267,426 L 272,426 L 273,427 L 273,428 L 276,428 L 278,430 L 280,430 L 281,431 L 285,431 L 286,432 L 286,433 L 289,433 L 290,434 L 291,433 L 293,435 L 300,435 L 301,436 L 302,435 L 303,435 L 304,436 L 306,436 L 307,435 L 308,436 L 309,435 L 310,435 L 311,436 L 312,435 L 315,435 L 316,434 L 316,431 L 319,428 L 318,427 L 318,425 L 319,424 L 320,424 L 319,424 L 318,423 L 319,422 L 320,422 L 323,419 L 323,414 L 328,409 L 328,408 L 329,407 L 329,405 L 328,404 L 331,401 L 331,400 L 332,399 L 333,399 L 334,398 L 334,390 L 337,387 L 338,387 L 338,386 L 339,385 L 339,379 L 340,378 L 341,378 L 341,377 L 342,376 L 343,376 L 344,375 L 344,368 L 345,367 L 346,368 L 346,367 L 347,366 L 348,366 L 349,365 L 349,361 L 350,360 L 351,361 L 352,360 L 353,360 L 355,358 L 356,358 L 359,355 L 360,355 L 362,353 L 363,353 L 364,352 L 365,352 L 365,351 L 366,350 L 367,350 L 368,351 L 370,349 L 371,349 L 372,348 L 374,348 L 375,347 L 375,345 L 376,344 L 381,344 L 382,343 L 383,343 L 384,344 L 385,343 L 393,343 L 394,344 L 397,344 L 398,345 L 398,346 L 400,346 L 401,345 L 402,346 L 422,346 L 423,345 L 426,345 L 427,346 L 431,346 L 432,345 L 435,345 L 436,344 L 437,344 L 438,343 L 440,343 L 441,342 L 441,341 L 443,339 L 443,338 L 444,337 L 446,337 L 446,334 L 447,333 L 448,333 L 449,332 L 449,331 L 450,330 L 451,330 L 453,328 L 453,327 L 454,326 L 454,323 L 455,322 L 456,322 L 459,319 L 459,318 L 460,317 L 461,317 L 461,316 L 465,312 L 466,312 L 466,311 L 467,310 L 467,308 L 468,307 L 469,307 L 469,305 L 470,304 L 471,304 L 473,302 L 474,302 L 474,301 L 477,298 L 478,298 L 478,297 L 479,296 L 479,295 L 480,294 L 480,293 L 482,291 L 482,290 L 483,289 L 484,289 L 486,287 L 486,286 L 487,285 L 487,284 L 488,283 L 490,283 L 489,282 L 490,281 L 492,281 L 491,280 L 493,278 L 494,278 L 495,277 L 557,277 L 558,278 L 563,278 L 569,284 L 569,286 L 570,287 L 571,287 L 572,288 L 572,292 L 574,292 L 575,293 L 575,294 L 576,295 L 576,296 L 580,300 L 580,302 L 582,304 L 582,306 L 585,309 L 585,312 L 586,311 L 587,312 L 587,313 L 588,314 L 589,314 L 590,315 L 590,317 L 593,320 L 592,321 L 593,322 L 593,323 L 595,323 L 596,324 L 595,325 L 598,328 L 598,329 L 599,329 L 600,330 L 600,332 L 601,333 L 601,334 L 602,334 L 603,335 L 603,336 L 604,337 L 603,338 L 604,338 L 606,340 L 607,339 L 608,340 L 608,343 L 609,344 L 610,344 L 611,343 L 613,343 L 615,341 L 616,341 L 616,340 L 617,339 L 618,339 L 620,337 L 620,336 L 621,335 L 620,334 L 620,325 L 621,324 L 621,288 L 620,287 L 620,286 L 619,287 L 618,286 L 618,284 L 617,284 L 616,283 L 616,282 L 615,281 L 615,280 L 614,279 L 614,278 L 611,275 L 611,274 L 610,274 L 609,273 L 609,271 L 608,270 L 607,270 L 606,269 L 606,267 L 604,265 L 604,263 L 603,262 L 602,262 L 601,261 L 601,260 L 600,259 L 600,256 L 599,256 L 598,255 L 598,254 L 597,253 L 596,253 L 593,250 L 593,249 L 592,249 L 591,248 L 591,247 L 588,244 L 588,242 L 585,239 L 585,238 L 584,238 L 583,237 L 583,235 L 582,234 L 582,233 L 579,230 L 580,229 L 579,229 L 577,227 L 577,225 L 576,226 L 575,225 L 575,223 L 574,222 L 574,221 L 575,220 L 573,220 L 572,219 L 572,217 L 569,217 L 568,216 L 568,215 L 567,214 L 567,212 L 566,212 L 565,211 L 565,209 L 563,207 L 563,206 L 562,205 L 561,205 L 560,204 L 560,203 L 558,201 L 558,199 L 557,198 L 556,198 L 555,197 L 555,196 L 554,195 L 554,194 L 553,194 L 552,193 L 553,192 L 552,191 L 552,190 L 551,190 L 550,189 L 550,188 L 549,187 L 549,184 L 548,185 L 547,184 L 547,182 L 545,182 L 542,179 L 542,178 L 539,175 L 539,174 L 538,175 L 537,174 L 537,173 L 535,171 Z" fill="#ff8731"/>
  <ns37:path xmlns:ns37="http://www.w3.org/2000/svg" d="M 0,0 Z" fill="#ff8731"/>
</g>
  <defs>
    <linearGradient id="grad" x1="0%" y1="0%" x2="100%" y2="0%">
      <stop offset="0%" stop-color="#FFFFFF"/>
      <stop offset="100%" stop-color="#ff8731"/>
    </linearGradient>
  </defs>
  <text x="60" y="45" fill="#FFFFFF" font-family="Montserrat, sans-serif" font-size="30">Lion-Packages</text>
  <text x="245" y="18" fill="url(#grad)" font-family="Montserrat, sans-serif" font-size="15">DEV</text>
</svg>
